<svg width="32" height="32" viewBox="0 0 32 32" fill="none" xmlns="http://www.w3.org/2000/svg">
<path d="M16.04 29.3333C23.4 29.3333 29.3733 23.3599 29.3733 15.9999C29.3733 8.63992 23.4 2.66658 16.04 2.66658C8.67996 2.66658 2.70663 8.63992 2.70663 15.9999C2.70663 23.3599 8.66663 29.3333 16.04 29.3333ZM17.7066 11.9599C17.7066 11.3199 17.9733 11.0666 18.6533 11.0666L20.3866 11.0666C21.0666 11.0666 21.3333 11.3199 21.3333 11.9599L21.3333 20.0399C21.3333 20.6799 21.0666 20.9333 20.3866 20.9333L18.6666 20.9333C17.9866 20.9333 17.72 20.6799 17.72 20.0399L17.72 11.9599L17.7066 11.9599ZM10.6666 11.9599C10.6666 11.3199 10.9333 11.0666 11.6133 11.0666L13.3333 11.0666C14.0133 11.0666 14.28 11.3199 14.28 11.9599L14.28 20.0399C14.28 20.6799 14.0133 20.9333 13.3333 20.9332L11.6133 20.9332C10.9333 20.9332 10.6666 20.6799 10.6666 20.0399L10.6666 11.9599Z" fill="#F28C28"/>
</svg>
