<svg width="32" height="32" viewBox="0 0 32 32" fill="none" xmlns="http://www.w3.org/2000/svg">
<path d="M15.96 2.66675C8.60004 2.66675 2.62671 8.64008 2.62671 16.0001C2.62671 23.3601 8.60004 29.3334 15.96 29.3334C23.32 29.3334 29.2934 23.3601 29.2934 16.0001C29.2934 8.64009 23.3334 2.66675 15.96 2.66675ZM19.96 18.9734L16.0934 21.2001C15.6134 21.4801 15.08 21.6134 14.56 21.6134C14.0267 21.6134 13.5067 21.4801 13.0267 21.2001C12.0667 20.6401 11.4934 19.6534 11.4934 18.5334L11.4934 14.0668C11.4934 12.9601 12.0667 11.9601 13.0267 11.4001C13.9867 10.8401 15.1334 10.8401 16.1067 11.4001L19.9734 13.6268C20.9334 14.1868 21.5067 15.1734 21.5067 16.2934C21.5067 17.4134 20.9334 18.4134 19.96 18.9734Z" fill="#F28C28"/>
</svg>
