<svg width="77" height="92" viewBox="0 0 77 92" fill="none" xmlns="http://www.w3.org/2000/svg">
<path d="M37.9817 12.7044C37.9245 12.4968 37.7858 12.3158 37.6009 12.2065C37.471 12.1314 37.3323 12.0928 37.1815 12.0928C37.1078 12.1027 37.0341 12.1126 36.9614 12.1226C36.8338 12.1579 36.7215 12.2197 36.6246 12.3081C36.5531 12.3566 36.4794 12.4041 36.41 12.4571C36.246 12.5819 36.0953 12.7077 35.9544 12.8579C35.7794 13.0444 35.6077 13.2343 35.4382 13.4253C35.261 13.6241 35.0849 13.8239 34.8945 14.0116C34.7052 14.197 34.5093 14.3759 34.3277 14.5691C33.9557 14.9632 33.5881 15.3607 33.2249 15.7626C33.0433 15.9646 32.8595 16.1644 32.6845 16.372C32.515 16.574 32.3554 16.7827 32.1936 16.9913C31.9812 17.2662 31.7589 17.5323 31.5509 17.8116C31.4221 17.9828 31.2955 18.155 31.1657 18.325C30.8421 18.7313 30.5108 19.1298 30.1894 19.5372C29.8174 20.0097 29.4696 20.4977 29.1197 20.9879C29.0107 21.1414 28.8984 21.2915 28.7851 21.4417C28.4813 21.8314 28.1753 22.2189 27.8716 22.6086C27.5733 22.9895 27.2673 23.3627 26.9625 23.738C26.9537 23.7469 26.9449 23.7557 26.9361 23.7645C26.7424 23.9577 26.5487 24.1498 26.3572 24.3464C26.1678 24.5407 25.9752 24.7328 25.7903 24.9326C25.5691 25.1711 25.349 25.4106 25.1278 25.6491C24.7822 26.0234 24.4465 26.4065 24.1119 26.7907C23.7091 27.2544 23.3096 27.7203 22.9145 28.1906C22.8583 28.2579 22.8022 28.3253 22.7461 28.3926C22.7076 28.3871 22.6679 28.3827 22.6283 28.3827C22.5579 28.3926 22.4874 28.4015 22.417 28.4114C22.2838 28.4489 22.1683 28.5152 22.0703 28.6123C22.0516 28.6267 22.034 28.641 22.0153 28.6543C21.881 28.6543 21.7456 28.6874 21.6367 28.7592C21.5684 28.8033 21.4815 28.8585 21.4331 28.9126C21.4078 28.9413 21.3824 28.97 21.3571 28.9987C21.3065 29.0561 21.2581 29.1158 21.2096 29.1754C21.1722 29.2206 21.1359 29.2659 21.0996 29.3123C21.0038 29.4337 20.9081 29.5552 20.8123 29.6777C20.6902 29.8323 20.5702 29.9879 20.4491 30.1436C20.1751 30.4958 19.901 30.848 19.6292 31.2024C19.0723 31.8217 18.5132 32.44 17.9728 33.0737C17.6415 33.4612 17.3355 33.8697 17.0274 34.276C16.9305 34.4007 16.8326 34.5244 16.7291 34.6436C16.5728 34.8225 16.4143 34.9991 16.2558 35.1758C16.1106 35.3381 15.9763 35.5081 15.8409 35.6792C15.7452 35.7995 15.6516 35.9221 15.5614 36.0457C15.5449 36.0623 15.5295 36.0789 15.5129 36.0965C15.1894 36.4388 14.8691 36.781 14.5334 37.1111C14.2208 37.4191 13.8918 37.7139 13.6221 38.0617C13.4955 38.2251 13.3745 38.3841 13.2754 38.5596C13.2688 38.5618 13.2622 38.564 13.2556 38.5673C13.0861 38.6336 13.0432 38.6545 12.9056 38.7738C12.7835 38.8787 12.7009 39.0233 12.6547 39.1767C12.6107 39.3247 12.6217 39.4837 12.6756 39.6272C12.6734 39.6504 12.6712 39.6736 12.6701 39.699C12.6635 39.8646 12.7163 40.0291 12.8099 40.1637C12.8231 40.3006 12.8352 40.4398 12.8638 40.5744C12.9001 40.7412 12.9452 40.899 13.0091 41.0569C13.0773 41.2258 13.1522 41.3936 13.2248 41.5603C13.2963 41.7359 13.3679 41.9125 13.4383 42.0892C13.522 42.2989 13.5979 42.5131 13.6738 42.7262C13.7487 42.9315 13.8257 43.1358 13.9083 43.3378C13.9897 43.5365 14.0591 43.7419 14.1295 43.945C14.1889 44.1151 14.2528 44.2829 14.3199 44.4496C14.4112 44.6726 14.5015 44.8923 14.6259 45.0987C14.7117 45.2412 14.8009 45.3814 14.879 45.5271C14.9175 45.6 14.9516 45.6739 14.9902 45.7468C15.1354 46.0206 15.3985 46.2823 15.7353 46.2569C15.7925 46.2491 15.8508 46.2414 15.9081 46.2337C15.929 46.2282 15.9488 46.2204 15.9675 46.2127C15.9983 46.2734 16.0368 46.3286 16.0831 46.3739C16.1183 46.4092 16.1568 46.439 16.1975 46.4644C16.1546 46.6333 16.1249 46.8111 16.1876 46.9778C16.2063 47.0231 16.2261 47.0683 16.2448 47.1136C16.2955 47.1997 16.3637 47.2671 16.4485 47.3178C16.4936 47.3366 16.5387 47.3565 16.5838 47.3752C16.6499 47.3929 16.7159 47.3995 16.783 47.394C16.9195 47.4238 17.067 47.404 17.187 47.33C17.3586 47.224 17.4852 47.0705 17.6195 46.9226C17.691 46.8442 17.7615 46.7647 17.8319 46.6852C17.9596 46.5428 18.0828 46.396 18.2083 46.2514C18.3657 46.0703 18.5209 45.8914 18.6453 45.685C18.708 45.5823 18.7619 45.4752 18.8191 45.3703C18.9369 45.2467 19.0569 45.1252 19.1801 45.0082C19.1823 45.006 19.1856 45.0038 19.1878 45.0005C19.2176 44.9784 19.2462 44.9552 19.2737 44.9309C19.343 44.8614 19.3915 44.7786 19.4179 44.6836C19.4575 44.539 19.4366 44.3811 19.3617 44.2509C19.3122 44.167 19.2451 44.0996 19.1614 44.0499C19.0745 43.9991 18.9578 43.9649 18.8489 43.9704C18.8456 43.9671 18.8434 43.9638 18.8401 43.9605C18.8158 43.9307 18.7916 43.902 18.7652 43.8755C18.7399 43.8479 18.7157 43.8214 18.6915 43.7938C18.643 43.7386 18.5935 43.6845 18.544 43.6293C18.4504 43.5255 18.3569 43.4228 18.2633 43.3191C18.1731 43.2197 18.0806 43.1203 17.986 43.0254C17.8209 42.8609 17.6613 42.6842 17.4786 42.5407C17.4181 42.48 17.3487 42.4347 17.2706 42.4038C17.2541 42.3817 17.2376 42.3597 17.22 42.3376C17.1407 42.2327 17.0615 42.1278 16.9756 42.0285C16.9503 41.9997 16.9283 41.9688 16.9008 41.9423C16.805 41.8474 16.7082 41.8054 16.5838 41.7591C16.5299 41.7447 16.476 41.737 16.4231 41.737C16.3703 41.737 16.3153 41.7447 16.2625 41.7591C16.2305 41.7679 16.1997 41.78 16.17 41.7944C16.2173 41.7491 16.2636 41.7028 16.3076 41.6542C16.4606 41.4842 16.6036 41.3053 16.7478 41.1276C16.8832 40.9598 17.0142 40.7875 17.1451 40.6164C17.2981 40.4188 17.4522 40.2245 17.6107 40.0324C17.6998 39.9242 17.8 39.8215 17.899 39.7221C17.9893 39.6327 18.0784 39.5433 18.1742 39.4594C18.2986 39.4163 18.4141 39.3413 18.5 39.2551C18.5583 39.1966 18.6188 39.1149 18.6596 39.0365C18.6816 38.9957 18.6992 38.9515 18.719 38.9096C18.7553 38.8301 18.7916 38.7506 18.8302 38.6711C18.872 38.5861 18.9138 38.5022 18.9556 38.4183C18.9754 38.3774 18.9952 38.3366 19.0151 38.2968C19.0591 38.2063 19.102 38.1069 19.1361 38.0153C19.2011 37.842 19.2099 37.6521 19.1636 37.4732C19.4487 37.0272 19.7348 36.5823 20.0199 36.1363C20.1068 36.0005 20.1938 35.8647 20.2818 35.73C20.5229 35.369 20.7672 35.0102 21.0115 34.6513C21.5497 33.862 22.1154 33.0925 22.6867 32.3252C22.7725 32.2148 22.8583 32.1033 22.9387 31.9884C22.9398 31.9862 22.942 31.984 22.9431 31.9807C23.194 31.644 23.445 31.3061 23.6948 30.9672C23.9501 30.6205 24.1978 30.2673 24.4586 29.925C24.4399 29.9493 24.4223 29.9725 24.4036 29.9968C24.5125 29.8544 24.6193 29.7119 24.7184 29.5607C24.7701 29.4812 24.8009 29.3896 24.8141 29.2957C25.283 28.7183 25.7584 28.1453 26.2317 27.5701C26.5443 27.1892 26.8689 26.8172 27.1782 26.4341C27.2817 26.3303 27.3521 26.2078 27.3917 26.0664C27.4071 26.009 27.417 25.9516 27.4203 25.8942C27.4456 25.8666 27.4699 25.839 27.4952 25.8114C27.8529 25.4129 28.1952 25.001 28.5539 24.6025C28.6167 24.5329 28.6783 24.4634 28.741 24.3949C28.8434 24.2923 28.9138 24.1697 28.9535 24.0295C28.9568 24.0152 28.9612 24.0019 28.9634 23.9876C29.3585 23.5415 29.7536 23.0955 30.152 22.6539C30.5009 22.2653 30.8201 21.8524 31.169 21.4626C31.5201 21.0707 31.8789 20.6854 32.2145 20.2791C32.6284 19.7779 33.0147 19.2557 33.4087 18.739C33.5077 18.6098 33.6068 18.4796 33.7037 18.3482C33.7928 18.2267 33.8742 18.0998 33.9579 17.9761C34.123 17.731 34.2881 17.487 34.4631 17.2497C34.7701 16.8633 35.097 16.4956 35.4371 16.1379C35.8036 15.7526 36.1965 15.3971 36.5498 14.9997C36.7611 14.7623 36.9801 14.5349 37.2036 14.3097C37.3202 14.1926 37.4314 14.0734 37.537 13.9464C37.6317 13.8316 37.723 13.7135 37.7946 13.5832C37.8694 13.4463 37.92 13.2962 37.9795 13.1515C38.0191 13.0036 38.0191 12.8568 37.9795 12.7088L37.9817 12.7044ZM16.3087 44.4496C16.323 44.5026 16.345 44.5523 16.3714 44.5975C16.3714 44.6063 16.3725 44.6152 16.3736 44.624C16.3758 44.6737 16.378 44.7234 16.3802 44.772C16.3494 44.8095 16.323 44.8503 16.2977 44.8923C16.2889 44.8537 16.2801 44.815 16.2713 44.7775C16.2228 44.5776 16.1656 44.3811 16.1194 44.1802C16.0698 43.9638 16.0346 43.7441 15.9895 43.5277C15.9829 43.4935 15.9752 43.4593 15.9675 43.425C15.9763 43.3279 15.9796 43.2296 15.9752 43.1314C15.9686 43 15.9587 42.8697 15.9499 42.7383C15.9752 42.7836 16.0005 42.8278 16.028 42.8708C16.0181 42.9172 16.0137 42.9647 16.0192 43.0177C16.0291 43.1104 16.0401 43.1689 16.0621 43.2495C16.0742 43.2915 16.0853 43.3323 16.0963 43.3743C16.1205 43.4626 16.1447 43.552 16.17 43.6403C16.1865 43.7651 16.2041 43.8898 16.2217 44.0135C16.2426 44.1603 16.2625 44.3083 16.3087 44.4485V44.4496Z" fill="#32758A"/>
<path d="M39.1804 11.8527C39.0967 11.7103 38.9669 11.6187 38.8128 11.569C38.7754 11.5569 38.7368 11.5502 38.6961 11.5469C38.7093 11.5348 38.7214 11.5215 38.7335 11.5083C38.7644 11.4741 38.7941 11.4387 38.8172 11.399C38.9217 11.2135 38.8953 10.9772 38.7434 10.8249C38.6521 10.7333 38.531 10.688 38.4111 10.688C38.3285 10.688 38.246 10.709 38.1722 10.7509C38.0842 10.7973 37.9983 10.8448 37.907 10.8856C37.8057 10.9309 37.7056 10.9772 37.6065 11.028C37.4095 11.1285 37.2224 11.2433 37.0408 11.3692C36.6732 11.6242 36.3221 11.9057 35.9633 12.1751C35.785 12.3098 35.6056 12.4434 35.4163 12.5626C35.2193 12.6863 35.0179 12.8044 34.8209 12.9281C34.6349 13.044 34.4588 13.1754 34.2794 13.3023C34.0912 13.4348 33.8997 13.5629 33.7104 13.6931C33.5222 13.8223 33.3406 13.9625 33.1557 14.0972C32.9466 14.2496 32.7397 14.4041 32.5405 14.5686C32.1982 14.8524 31.8636 15.1449 31.5268 15.4364C31.5158 15.4452 31.5048 15.4552 31.4949 15.464C31.4806 15.4695 31.4652 15.475 31.4509 15.4817C31.2142 15.5678 30.9941 15.7091 30.7828 15.8416C30.5792 15.9685 30.3778 16.0988 30.1775 16.2291C29.7857 16.4819 29.4104 16.7546 29.0395 17.0372C28.6807 17.3099 28.323 17.5859 27.9466 17.8321C27.7474 17.9624 27.547 18.0894 27.3456 18.2174C27.3082 18.2119 27.2719 18.2075 27.2345 18.202C27.1013 18.202 26.9769 18.2351 26.8614 18.3014C26.7172 18.361 26.5741 18.4228 26.4387 18.5012C26.2935 18.5862 26.1559 18.6822 26.0183 18.7794C25.7035 19.0024 25.4053 19.2486 25.1092 19.4937C24.9067 19.6615 24.7119 19.8393 24.5127 20.0126C24.4511 20.0667 24.3894 20.1208 24.3278 20.1749C24.2651 20.2003 24.2023 20.2268 24.1407 20.2544C24.0736 20.2853 24.0108 20.3328 23.9503 20.3747C23.7698 20.5006 23.5981 20.6419 23.4275 20.7799C23.3406 20.8494 23.2547 20.9201 23.17 20.9908C23.1259 21.0283 23.0819 21.0647 23.0368 21.1023C23.0335 21.1023 23.0302 21.1001 23.0269 21.099C22.8079 21.0382 22.5921 21.0769 22.394 21.1818C22.2598 21.2524 22.1255 21.3176 22 21.4037C21.8151 21.5317 21.6412 21.6742 21.4695 21.8188C21.3694 21.9027 21.2725 21.9877 21.1757 22.076C20.9534 22.2781 20.731 22.479 20.5087 22.681C20.49 22.6976 20.4724 22.7141 20.4537 22.7318C20.4471 22.7351 20.4405 22.7395 20.4339 22.7429C20.3656 22.7771 20.2963 22.8069 20.2303 22.8444C20.1631 22.8809 20.1015 22.9294 20.041 22.9758C19.8605 23.1116 19.6877 23.2551 19.5171 23.4042C19.429 23.4814 19.3421 23.5587 19.2562 23.6371C19.101 23.7784 18.9459 23.9197 18.7896 24.0611C18.7411 24.0511 18.6938 24.0456 18.6454 24.0456C18.5838 24.0456 18.521 24.0544 18.4594 24.071C18.3416 24.1041 18.2382 24.1648 18.1512 24.251C17.9652 24.4044 17.7792 24.559 17.5943 24.7135C17.5371 24.7157 17.4799 24.7246 17.4259 24.7411C17.3225 24.7721 17.2212 24.814 17.1288 24.8703C16.9978 24.9498 16.8855 25.0591 16.77 25.1596C16.7149 25.207 16.6566 25.2501 16.5994 25.2954C16.4343 25.4267 16.2692 25.5581 16.1041 25.6884C15.8917 25.8573 15.676 26.024 15.4625 26.1907C15.0905 26.4745 14.7174 26.7571 14.3443 27.0397C14.1318 27.2009 13.9216 27.3643 13.7125 27.5288C13.5408 27.6635 13.3669 27.7949 13.1985 27.9351C13.1567 27.9704 13.1138 28.0057 13.072 28.04C13.0202 28.0565 12.9707 28.0797 12.9267 28.1084C12.6174 28.3127 12.339 28.5699 12.0682 28.8238C12.0099 28.879 11.9516 28.9331 11.8943 28.9883C11.7975 28.9806 11.7006 28.9894 11.6038 29.0159C11.5212 29.0457 11.4409 29.0822 11.3605 29.1175C11.3517 29.1241 11.3418 29.1307 11.333 29.1363C11.2659 29.1871 11.1998 29.2378 11.1349 29.2908C11.103 29.3162 11.0744 29.346 11.0436 29.3736C10.9896 29.4222 10.9357 29.4697 10.8818 29.5183C10.8058 29.5867 10.7299 29.6552 10.6528 29.7214C10.4668 29.8815 10.2797 30.0405 10.0904 30.1972C9.75035 30.4777 9.38935 30.7338 9.06468 31.0319C8.87317 31.2085 8.69818 31.4017 8.50117 31.5718C8.3724 31.6689 8.24253 31.7639 8.10826 31.8544C7.92996 31.9747 7.73405 32.0708 7.54365 32.1668C7.35765 32.2618 7.17935 32.3678 7.00215 32.4804C6.91411 32.5367 6.82496 32.5886 6.73581 32.6438C6.64886 32.6968 6.56302 32.7542 6.47277 32.8027C6.36821 32.8579 6.26035 32.9098 6.15249 32.9584C6.03143 33.0026 5.90816 33.0357 5.78159 33.0644C5.65722 33.0931 5.54386 33.1516 5.42059 33.1814C5.29513 33.1969 5.2544 33.2101 5.08161 33.2951C4.94624 33.3757 4.83728 33.4839 4.75803 33.6208C4.71291 33.6893 4.68209 33.7621 4.66668 33.8405C4.65568 33.92 4.64577 33.9995 4.63477 34.079C4.63477 34.2413 4.67549 34.3925 4.75693 34.5328C4.80646 34.6476 4.97595 34.8021 5.08271 34.8606C5.13114 34.8871 5.18176 34.9147 5.23349 34.9357C5.39088 35.0218 5.55046 35.1024 5.70455 35.1941C5.90486 35.3133 6.10627 35.4314 6.30768 35.5473C6.50248 35.6589 6.69509 35.7748 6.88549 35.894C7.07259 36.011 7.2619 36.127 7.449 36.2451C7.83201 36.4891 8.1897 36.775 8.5562 37.0422C8.7312 37.1692 8.90289 37.3005 9.08229 37.4198C9.33983 37.5909 9.61058 37.7212 9.90223 37.8261C10.0002 37.8614 10.1036 37.8813 10.2082 37.889C10.2126 37.8989 10.217 37.9089 10.2203 37.9188C10.2577 38.006 10.304 38.0877 10.3568 38.1661C10.4382 38.2875 10.5285 38.4101 10.6396 38.5061C10.7024 38.5602 10.8014 38.6452 10.8884 38.6883C10.9643 38.7236 11.0414 38.7557 11.1206 38.7855C11.2108 38.7976 11.3011 38.8097 11.3902 38.8219C11.4464 38.8219 11.5003 38.8164 11.5531 38.8064C11.5873 38.8528 11.6247 38.897 11.661 38.9433C11.7435 39.0504 11.9141 39.1564 12.0473 39.1851C12.1188 39.2006 12.1915 39.2105 12.2652 39.216C12.4039 39.216 12.5327 39.1807 12.6526 39.1111C12.6823 39.0891 12.7132 39.067 12.7429 39.0449C12.9322 38.9323 13.0544 38.7247 13.072 38.5072C13.0995 38.4918 13.127 38.4752 13.1523 38.4576C13.291 38.3637 13.4275 38.261 13.5518 38.1484C13.7202 37.995 13.8754 37.8294 14.0317 37.6638C14.3399 37.3381 14.6447 37.0102 14.9386 36.6712C15.3216 36.2318 15.7079 35.7958 16.092 35.3586C16.1151 35.3365 16.1382 35.3133 16.1602 35.2901C16.1955 35.2537 16.2307 35.2161 16.2659 35.1797C16.3407 35.1013 16.4178 35.0229 16.4904 34.9423C16.6478 34.769 16.8041 34.5957 16.9593 34.4201C17.1068 34.2523 17.2531 34.0834 17.4006 33.9156C17.5635 33.7312 17.7297 33.5491 17.8882 33.3614C17.9839 33.2642 18.05 33.1505 18.0874 33.0191C18.0973 32.9838 18.1039 32.9485 18.1083 32.9131C18.171 32.8359 18.2327 32.7575 18.2954 32.6802C18.313 32.6581 18.3317 32.6349 18.3504 32.6128C18.4319 32.5367 18.5122 32.4605 18.5937 32.3843C18.9327 32.0619 19.2672 31.734 19.6084 31.4128C20.2787 30.7824 20.9434 30.142 21.5521 29.4498C21.6313 29.3604 21.7117 29.271 21.7876 29.1793C21.8305 29.1274 21.8746 29.0755 21.9175 29.0237C21.9868 28.9409 22.0518 28.8536 22.1167 28.7675C22.1343 28.7432 22.1519 28.7189 22.1684 28.6936C22.2168 28.6207 22.2422 28.5434 22.2587 28.4639C22.547 28.1802 22.8178 27.8766 23.0907 27.5774C23.4143 27.223 23.7357 26.8653 24.0559 26.5076C24.604 25.8971 25.1455 25.2799 25.6969 24.6705C25.7476 24.6186 25.7982 24.5656 25.8488 24.5137C26.0084 24.3514 26.1834 24.198 26.3045 24.0025C26.3507 23.9275 26.3815 23.8458 26.3969 23.7619C26.5598 23.5918 26.7227 23.4218 26.8856 23.2507C27.0419 23.0851 27.1982 22.9195 27.3555 22.755C27.5448 22.5574 27.7363 22.3598 27.9168 22.1544C28.0335 22.0418 28.1491 21.9281 28.2657 21.8155C28.903 21.1961 29.56 20.5977 30.2039 19.985C30.4394 19.7609 30.6738 19.5379 30.9083 19.3126C31.0117 19.2144 31.1152 19.115 31.2186 19.0168C31.2847 18.9538 31.3496 18.892 31.4156 18.8291C31.4608 18.786 31.5103 18.7496 31.5543 18.7065C31.627 18.6348 31.6963 18.5498 31.7392 18.4559C31.7777 18.3897 31.8064 18.3212 31.8273 18.2506C31.8713 18.2075 31.9153 18.1645 31.9593 18.1214C32.2785 17.8112 32.5944 17.4976 32.9103 17.183C33.0588 17.0361 33.2063 16.8882 33.3549 16.7414C33.4253 16.6718 33.4958 16.6012 33.5662 16.5305C33.6675 16.4378 33.7731 16.3472 33.8656 16.2479C33.9635 16.143 34.0219 16.0149 34.0219 15.8692C34.0219 15.8559 34.0219 15.8438 34.0208 15.8305C34.0945 15.7742 34.1682 15.7168 34.242 15.6594C34.4148 15.5236 34.5821 15.3823 34.7406 15.2322C34.822 15.1549 34.9001 15.0754 34.975 14.9915C35.0069 14.9562 35.0377 14.9186 35.0685 14.8811C35.1148 14.8237 35.1588 14.7641 35.2039 14.7044C35.2589 14.6305 35.2997 14.5576 35.3239 14.4649C35.3239 14.4616 35.325 14.4593 35.3261 14.456C35.8533 13.989 36.3783 13.5198 36.9109 13.0583C37.0496 12.938 37.1894 12.8177 37.3292 12.6984C37.47 12.5902 37.6087 12.4809 37.7463 12.3694C37.7012 12.4401 37.656 12.5107 37.6131 12.5825C37.5229 12.7293 37.4348 12.8784 37.3479 13.0274C37.2741 13.1544 37.1971 13.2824 37.1311 13.4138C37.1113 13.4403 37.0925 13.469 37.0771 13.4933C37.0639 13.5132 37.0518 13.5331 37.0397 13.554C37.0133 13.5982 36.9869 13.6424 36.9605 13.6876C36.9153 13.7649 36.8702 13.8422 36.8262 13.9206C36.7271 13.978 36.6457 14.0619 36.5819 14.1624C36.4267 14.4041 36.2869 14.6548 36.1471 14.9065C36.0855 15.0169 36.0228 15.1284 35.9622 15.2399C35.9567 15.241 35.9512 15.2432 35.9457 15.2443C35.8951 15.2664 35.8445 15.2874 35.7927 15.3083C35.697 15.3657 35.621 15.4419 35.5638 15.538C35.4548 15.6804 35.3635 15.8394 35.271 15.9928C35.2127 16.0911 35.1533 16.1882 35.0939 16.2865C34.9541 16.5018 34.8121 16.716 34.6723 16.9313C34.6338 16.992 34.5942 17.0516 34.5557 17.1123C34.5039 17.1344 34.4522 17.1565 34.3994 17.1786C34.3003 17.2371 34.2211 17.3166 34.1616 17.417C34.0263 17.5948 33.9162 17.7902 33.8018 17.9812C33.7676 18.0375 33.7335 18.0938 33.7005 18.1501C33.629 18.2594 33.5585 18.3687 33.487 18.478C33.4066 18.5111 33.3329 18.5608 33.2691 18.6237C33.2151 18.6778 33.159 18.7308 33.1051 18.786C33.0489 18.8434 32.9994 18.9086 32.9499 18.9726C32.8123 19.1515 32.6824 19.3325 32.557 19.5202C32.4931 19.6162 32.4337 19.7145 32.3721 19.8117C32.218 20.0601 32.0628 20.3085 31.9087 20.5569C31.8361 20.675 31.7634 20.7942 31.6919 20.9135C31.5378 20.9322 31.3727 21.0018 31.2748 21.1177C31.1383 21.28 31.0051 21.4445 30.883 21.6178C30.7729 21.7724 30.6705 21.9325 30.5671 22.0926C30.5055 22.1886 30.446 22.2858 30.3866 22.3829C30.2094 22.6744 30.0333 22.9648 29.8561 23.2562C29.8011 23.3468 29.7471 23.4373 29.6932 23.5289C29.6701 23.5267 29.6459 23.5245 29.6228 23.5245C29.5732 23.5245 29.5237 23.53 29.4753 23.5422C29.4192 23.5543 29.3652 23.5742 29.3135 23.6029C29.2365 23.6338 29.1638 23.6791 29.1022 23.7398C28.8402 23.9959 28.6278 24.2984 28.4066 24.5899C28.291 24.7422 28.1766 24.8957 28.0643 25.0514C27.9422 25.2192 27.8211 25.387 27.7011 25.5559C27.5558 25.7602 27.3974 25.9633 27.2774 26.183C27.2543 26.2261 27.2356 26.2702 27.2224 26.3155C27.1662 26.3983 27.1101 26.4811 27.054 26.5628C26.9626 26.6942 26.8724 26.8244 26.7821 26.9558C26.6501 27.1457 26.5191 27.3367 26.3892 27.5288C26.0788 27.9837 25.7795 28.4451 25.479 28.9077C25.3932 29.0391 25.3084 29.1716 25.2237 29.3041C24.8528 29.8473 24.4863 30.3927 24.1077 30.9303C24.0702 30.9811 24.0339 31.0319 23.9987 31.0838C23.9668 31.1323 23.9437 31.1864 23.9294 31.245C23.914 31.2681 23.8975 31.2924 23.882 31.3156C23.7764 31.3609 23.6806 31.4249 23.597 31.5088C23.4517 31.6844 23.3152 31.8676 23.1766 32.0487C23.2239 31.988 23.2712 31.9261 23.3174 31.8654C23.2096 32.0056 23.1061 32.1481 23.0049 32.2938C22.8904 32.445 22.7759 32.5963 22.6637 32.7486C22.4193 33.0821 22.1761 33.4166 21.9296 33.7489C21.3165 34.5305 20.6815 35.2967 20.096 36.0994C19.768 36.5487 19.4433 37.0014 19.1198 37.454C18.8303 37.8614 18.5595 38.2809 18.2921 38.7027C17.9443 39.2514 17.6174 39.8166 17.2289 40.3388C17.12 40.4746 17.0066 40.6049 16.8767 40.7208C16.8426 40.7429 16.8074 40.765 16.7711 40.7848C16.6258 40.8643 16.5102 40.9758 16.4255 41.1194C16.2681 41.3821 16.2725 41.7398 16.4376 41.9982C16.573 42.2113 16.77 42.3559 16.9835 42.4817C17.1145 42.559 17.2454 42.6396 17.3698 42.7268C17.4171 42.7699 17.4634 42.8141 17.5129 42.856C17.645 42.9697 17.7825 43.068 17.9366 43.1464C18.1072 43.2336 18.2833 43.3109 18.455 43.3937C18.4583 43.3959 18.4627 43.397 18.466 43.3992C18.4682 43.5405 18.5276 43.7138 18.5937 43.8264C18.6509 43.9247 18.7037 43.9854 18.7676 44.0406C18.7654 44.0384 18.7632 44.0373 18.761 44.0351C18.7654 44.0384 18.7698 44.0417 18.7742 44.0461C18.794 44.0638 18.8149 44.0804 18.838 44.0969C18.9547 44.1897 19.0757 44.278 19.2045 44.352C19.2529 44.3796 19.3014 44.4061 19.3498 44.4326C19.3707 44.4469 19.3927 44.4624 19.4136 44.4767C19.5754 44.5871 19.7372 44.6975 19.9056 44.798C20.0465 44.8808 20.1873 44.9658 20.3359 45.0354C20.4493 45.0883 20.5626 45.1435 20.6837 45.1778C20.6914 45.18 20.698 45.1822 20.7057 45.1833C20.8378 45.2727 20.9677 45.3666 21.0953 45.4626C21.4937 45.7817 21.8679 46.135 22.3104 46.3944C22.514 46.5136 22.722 46.6274 22.9179 46.7621C23.0159 46.8294 23.1105 46.9001 23.2052 46.9707C23.247 47.0016 23.2888 47.0314 23.3317 47.0579C23.3527 47.0712 23.3747 47.0844 23.3967 47.0955C23.4891 47.1418 23.6025 47.1838 23.7059 47.2257C23.7742 47.2533 23.8787 47.2677 23.9888 47.2699C23.9965 47.2765 24.0053 47.2843 24.0141 47.2909C24.046 47.3174 24.078 47.3439 24.111 47.3704C24.2166 47.5514 24.3927 47.6916 24.593 47.7468C24.7526 47.791 24.9177 47.7822 25.0674 47.7292C25.205 47.717 25.3403 47.6784 25.4614 47.6088C25.6364 47.5095 25.7597 47.3671 25.8642 47.197C25.9259 47.0977 25.9787 46.9939 26.0304 46.889C26.1416 46.6627 26.2439 46.4308 26.3463 46.2001C26.3628 46.1626 26.3782 46.125 26.3947 46.0875C26.4321 45.9981 26.4883 45.8976 26.5092 45.7982C26.5268 45.7331 26.5356 45.6658 26.5367 45.5962C26.5367 45.4626 26.5015 45.3323 26.4354 45.2175C26.649 44.7229 26.8548 44.2272 27.0628 43.7304C27.1816 43.45 27.3016 43.1684 27.4194 42.888C27.6208 42.4431 27.8222 41.9993 28.0225 41.5533C28.105 41.3689 28.1876 41.1834 28.2712 40.9979C28.4022 40.7561 28.5079 40.5011 28.6201 40.2505C28.6928 40.0882 28.7665 39.9259 28.8402 39.7636C28.8766 39.6852 28.9129 39.608 28.9492 39.5307C29.0494 39.3154 29.1605 39.1045 29.2662 38.8914C29.3982 38.6243 29.5347 38.3593 29.6745 38.0965C29.7064 38.0402 29.7372 37.9839 29.7692 37.9276C29.8803 37.73 30.0135 37.5423 30.0729 37.3204C30.1456 37.0532 30.0685 36.7673 29.8825 36.573C29.9463 36.4284 30.0091 36.2826 30.0718 36.1369C30.0949 36.0828 30.118 36.0287 30.1412 35.9757C30.2864 35.6765 30.4317 35.3773 30.5737 35.077C30.6045 35.0053 30.6342 34.9324 30.665 34.8606C30.6838 34.79 30.6948 34.7193 30.697 34.6487C30.7047 34.6156 30.7102 34.5824 30.7135 34.5493C30.7157 34.5471 30.7179 34.5449 30.7201 34.5427C30.7938 34.4632 30.862 34.3793 30.9127 34.2843C30.9655 34.1839 31.0051 34.0746 31.0447 33.9675C31.0701 33.9001 31.0965 33.8328 31.1218 33.7655C31.1757 33.6241 31.2296 33.4828 31.2847 33.3415C31.3683 33.1229 31.4454 32.9032 31.5246 32.6835C31.584 32.5179 31.6435 32.3534 31.7029 32.1878C31.7249 32.1701 31.7469 32.1525 31.77 32.1326C31.8229 32.0884 31.8581 32.0233 31.8988 31.9681C31.9164 31.9438 31.9285 31.9151 31.9406 31.8886C31.9858 31.7892 32.0232 31.6921 32.054 31.5883C32.0705 31.5353 32.087 31.4823 32.1079 31.4304C32.1597 31.3013 32.2114 31.1732 32.2631 31.044C32.3523 30.8221 32.4392 30.6013 32.524 30.3783C32.7177 29.8638 32.9081 29.3471 33.0974 28.8316C33.4121 27.9715 33.7478 27.1203 34.0945 26.2735C34.1264 26.1554 34.1264 26.0373 34.0945 25.918C34.0626 25.8043 34.0054 25.7061 33.9228 25.6233C33.8876 25.5879 33.8491 25.557 33.8084 25.5316C33.9955 25.0238 34.1848 24.517 34.3774 24.0103C34.3851 23.9915 34.3928 23.9727 34.4005 23.954C34.4082 23.9385 34.4159 23.9231 34.4236 23.9076C34.8924 22.946 35.3382 21.9733 35.7806 20.9996C36.0789 20.3416 36.3794 19.6847 36.6754 19.0256C36.7205 18.9295 36.7646 18.8346 36.8075 18.7374C36.8856 18.563 36.9638 18.3897 37.0419 18.2152C37.1344 18.0077 37.2301 17.799 37.3094 17.5848C37.3314 17.5042 37.338 17.4237 37.3303 17.342C37.3886 17.1675 37.4447 16.992 37.5009 16.8164C37.5317 16.7005 37.5317 16.5846 37.5009 16.4698C37.4822 16.4013 37.4524 16.3373 37.4139 16.2788C37.6175 15.8813 37.8189 15.4828 38.0203 15.0831C38.2185 14.6912 38.4122 14.2959 38.5927 13.8952C38.7115 13.6313 38.8304 13.3664 38.9415 13.0992C38.9878 12.9877 39.0362 12.8773 39.0813 12.7647C39.1386 12.6222 39.2079 12.4787 39.2453 12.3297C39.2871 12.1685 39.2673 11.9985 39.1837 11.8538L39.1804 11.8527ZM6.03473 33.3757C6.03473 33.3757 6.03143 33.3735 6.03033 33.3724C6.03363 33.3746 6.03693 33.3779 6.04023 33.3801C6.03803 33.379 6.03693 33.3779 6.03473 33.3757ZM7.62399 34.2711C7.62399 34.2711 7.61849 34.2689 7.61629 34.2678C7.62399 34.2634 7.6306 34.2578 7.6383 34.2534C7.6339 34.2601 7.6295 34.2656 7.62509 34.2722L7.62399 34.2711Z" fill="#54C6F5"/>
<path d="M14.6772 27.9972C14.6772 27.9972 14.6828 27.993 14.6869 27.9902C14.6842 27.9916 14.6814 27.9944 14.6786 27.9958C14.6786 27.9958 14.6786 27.9958 14.6772 27.9958V27.9972Z" fill="#8E8E93"/>
<path d="M14.6869 27.9893L14.6846 27.9916L14.6869 27.9893Z" fill="#8E8E93"/>
<path d="M32.3477 27.027C32.3477 27.027 32.3523 27.0166 32.3546 27.0108C32.3546 27.0108 32.3546 27.0085 32.3557 27.0073C32.3534 27.0143 32.35 27.0201 32.3477 27.027Z" fill="#8E8E93"/>
<path d="M40.0069 9.88932C39.9562 9.83853 39.8836 9.80762 39.811 9.80762C39.7868 9.80762 39.7625 9.81093 39.7394 9.81866C39.6888 9.83411 39.6382 9.85067 39.5908 9.87386C39.5391 9.89925 39.4896 9.92685 39.4401 9.95666C39.4037 9.97764 39.3674 10.0008 39.3322 10.0229C39.2563 10.0693 39.1792 10.1156 39.1033 10.1631C38.9327 10.268 38.761 10.3729 38.5904 10.4778C38.225 10.7019 37.8618 10.9282 37.4975 11.1545C36.901 11.5244 36.3089 11.902 35.7167 12.2795C34.4026 13.1164 33.0907 13.9554 31.7799 14.7967C31.1503 15.2008 30.5186 15.6027 29.8913 16.0111C29.1396 16.5013 28.3889 16.9904 27.6372 17.4806C27.3841 17.6462 27.1332 17.8162 26.8822 17.984C26.4156 18.2954 25.9489 18.6067 25.4834 18.918C25.2853 19.0505 25.086 19.1808 24.889 19.3155C24.5192 19.5694 24.1494 19.8233 23.7796 20.0773C23.39 20.3444 23.0015 20.6116 22.613 20.8788C22.416 21.0146 22.2223 21.1537 22.0275 21.2917C21.5718 21.6141 21.1162 21.9353 20.6616 22.2566C20.4668 22.3935 20.272 22.5293 20.0794 22.6695C19.32 23.2204 18.5606 23.7702 17.8012 24.3211C17.6097 24.4603 17.4204 24.6027 17.23 24.744C16.7853 25.0741 16.3418 25.4042 15.8971 25.7343C15.2984 26.1792 14.703 26.6286 14.1076 27.0768C13.4923 27.5394 12.8749 27.9987 12.2564 28.4568C11.9955 28.65 11.7369 28.8466 11.4738 29.0364C11.082 29.3202 10.6891 29.6028 10.2973 29.8865C10.0629 30.0555 9.82953 30.2244 9.59291 30.39C9.18568 30.6748 8.77956 30.9608 8.37234 31.2456C8.26118 31.3229 8.14782 31.398 8.03556 31.4741C7.76591 31.6563 7.49626 31.8385 7.22662 32.0206C6.90634 32.237 6.57946 32.4435 6.25039 32.6455C5.96313 32.821 5.66927 32.9867 5.37101 33.1434C5.22903 33.2185 5.08485 33.2892 4.94067 33.3598C4.802 33.4283 4.66222 33.4945 4.52134 33.5574C4.51584 33.5541 4.51034 33.5497 4.50483 33.5464C4.46521 33.5199 4.42119 33.5078 4.37606 33.5078C4.28031 33.5078 4.18456 33.5607 4.13613 33.6435C4.09981 33.7065 4.08991 33.7827 4.10862 33.8522C4.12843 33.9229 4.17245 33.9737 4.23299 34.0145C4.59398 34.2585 4.95388 34.5025 5.30497 34.7586C5.37541 34.8127 5.44585 34.8679 5.51629 34.922C5.50528 34.9143 5.49537 34.9054 5.48437 34.8977C5.64395 35.0225 5.80354 35.1472 5.96423 35.2709C6.34394 35.5657 6.73135 35.8516 7.11436 36.142C7.46765 36.4091 7.82975 36.6642 8.19514 36.9148C8.58476 37.1808 8.97547 37.4436 9.36178 37.7141C9.73378 37.9746 10.097 38.2495 10.4745 38.5046C10.8036 38.7265 11.1392 38.9407 11.4672 39.1648C11.6202 39.2697 11.7721 39.3779 11.9262 39.4816C12.0748 39.5821 12.2233 39.6804 12.3818 39.7654C12.5469 40.2169 12.7274 40.6607 12.9222 41.1001C13.1071 41.5175 13.3261 41.9193 13.532 42.3278C13.6277 42.5188 13.718 42.712 13.8093 42.9052C13.9095 43.115 14.0096 43.3248 14.1043 43.5367C14.2 43.752 14.2969 43.9684 14.3959 44.1826C14.4906 44.3868 14.5896 44.59 14.6876 44.7931C14.8285 45.0879 14.9594 45.3882 15.0882 45.6896C15.2269 46.023 15.3622 46.3564 15.4822 46.6976C15.6143 47.0729 15.7508 47.4461 15.9313 47.8016C15.9489 47.8358 15.9742 47.8634 16.005 47.8844C16.0204 47.9506 16.0567 48.0147 16.1162 48.0511C16.1514 48.0732 16.1954 48.0986 16.2394 48.0919C16.268 48.0886 16.2967 48.0842 16.3253 48.0809C16.3517 48.071 16.377 48.0588 16.4023 48.0445C16.4155 48.0345 16.4287 48.0246 16.4419 48.0136C16.4606 48.0003 16.4783 47.9849 16.4959 47.9694C16.5223 47.9473 16.5454 47.9208 16.5696 47.8965C16.5872 47.8778 16.6048 47.859 16.6224 47.8402C16.661 47.7983 16.7006 47.7563 16.7391 47.7144C16.8128 47.6327 16.8866 47.5499 16.9603 47.4682C17.1122 47.3026 17.263 47.1359 17.4204 46.9747C17.5844 46.8069 17.7527 46.6424 17.9156 46.4734C18.073 46.31 18.226 46.1411 18.3735 45.9678C18.5155 45.8011 18.653 45.63 18.7917 45.4599C18.937 45.2833 19.0779 45.1044 19.2132 44.9201C19.3013 44.7997 19.3849 44.6772 19.4686 44.5535C19.6227 44.6761 19.7779 44.7975 19.9352 44.9157C20.1135 45.0504 20.294 45.1806 20.4745 45.312C20.8564 45.5891 21.2372 45.8673 21.6203 46.1411C21.8096 46.2769 22.0022 46.4105 22.1926 46.5452C22.3676 46.6689 22.5437 46.7936 22.7242 46.9084C22.9146 47.0299 23.1061 47.148 23.2976 47.2661C23.4891 47.3843 23.6773 47.5079 23.871 47.6216C24.1208 47.7685 24.374 47.9109 24.6392 48.0323C24.7636 48.0897 24.8879 48.1482 25.0123 48.2046C25.0717 48.231 25.1301 48.2598 25.1906 48.2851C25.2346 48.3039 25.2797 48.3238 25.3249 48.3392C25.3392 48.3437 25.3535 48.3481 25.3689 48.3514C25.3975 48.3569 25.4272 48.3613 25.4569 48.3613C25.5098 48.3635 25.5472 48.3437 25.5923 48.3227C25.6473 48.2984 25.6903 48.231 25.7057 48.1758C25.7211 48.1206 25.7156 48.0643 25.6936 48.0125C25.8675 47.6801 26.0249 47.339 26.1778 46.9967C26.3484 46.6148 26.5157 46.2317 26.6753 45.8452C27.0022 45.0515 27.3258 44.2555 27.6405 43.4561C27.9267 42.7319 28.2062 42.0043 28.499 41.2823C28.6751 40.8484 28.8512 40.4145 29.0273 39.9807C29.2034 39.5468 29.3872 39.1173 29.5666 38.6845C29.6932 38.3798 29.8186 38.0762 29.9441 37.7704C30.0586 37.4922 30.173 37.214 30.2875 36.9358C30.3414 36.8055 30.3964 36.6763 30.4482 36.5449C30.6254 36.0989 30.8015 35.6529 30.9787 35.2069C31.0964 34.9099 31.2109 34.6129 31.3231 34.3137C31.4893 33.8721 31.6555 33.4305 31.8217 32.9889C31.8723 32.8542 31.9175 32.7162 31.9648 32.5793C32.0638 32.2955 32.1629 32.0118 32.262 31.7292C32.3665 31.43 32.4711 31.1308 32.5723 30.8305C32.744 30.3171 32.9157 29.8048 33.0874 29.2915C33.597 27.7712 34.1033 26.2499 34.6304 24.7352C34.7515 24.3874 34.8704 24.0374 34.998 23.6919C35.162 23.2502 35.3249 22.8097 35.4889 22.3681C35.5516 22.1981 35.6232 22.0303 35.6903 21.8614C35.7971 21.5931 35.9038 21.3237 36.0106 21.0554C36.1537 20.6966 36.3 20.3389 36.4453 19.9812C37.0518 18.4864 37.623 16.9772 38.2118 15.4757C38.3714 15.0694 38.5288 14.6631 38.6851 14.2557C38.7511 14.0846 38.8204 13.9146 38.881 13.7413C38.9668 13.4929 39.0527 13.2445 39.1385 12.9971C39.199 12.8205 39.2519 12.6417 39.3069 12.4639C39.3652 12.2762 39.4202 12.0874 39.4731 11.8986C39.571 11.5465 39.6613 11.191 39.746 10.8355C39.7713 10.8079 39.7978 10.7803 39.8231 10.7527C39.8946 10.6776 39.9628 10.6058 40.0146 10.5142C40.0487 10.4535 40.0553 10.3817 40.0344 10.3177C40.0498 10.2835 40.063 10.2481 40.0773 10.2139C40.0839 10.1697 40.0894 10.1245 40.0938 10.0803C40.1026 10.0119 40.0597 9.93237 40.0135 9.886L40.0069 9.88932ZM11.6257 38.5256C11.246 38.276 10.8619 38.0354 10.4899 37.7748C10.0948 37.4988 9.70297 37.2195 9.30235 36.9523C8.93475 36.7072 8.56275 36.4665 8.19735 36.217C8.00694 36.0868 7.81654 35.9576 7.63054 35.8218C7.43243 35.6772 7.23542 35.5325 7.03841 35.3879C6.67962 35.1252 6.32302 34.8602 5.97083 34.5886C5.75842 34.4241 5.5471 34.2574 5.32588 34.105C5.1718 33.999 5.01771 33.8931 4.86253 33.7871C4.94838 33.7473 5.03422 33.7054 5.11897 33.6645C5.38752 33.5354 5.65166 33.3974 5.9125 33.2538C6.14473 33.1258 6.37365 32.9889 6.60038 32.8498C6.71374 32.7802 6.826 32.7095 6.93826 32.6378C7.03291 32.5782 7.12866 32.5196 7.22221 32.4567C7.59862 32.205 7.97613 31.9522 8.35253 31.7005C8.62658 31.5172 8.89623 31.3273 9.16697 31.1396C9.45973 30.9365 9.75469 30.7366 10.0453 30.5302C10.4448 30.2442 10.8432 29.9594 11.2427 29.6746C11.4617 29.5178 11.6807 29.3621 11.8976 29.202C12.5227 28.7417 13.1511 28.2857 13.7741 27.8209C14.4212 27.3385 15.0651 26.8527 15.7144 26.3735C16.4408 25.8381 17.1672 25.3026 17.8936 24.7672C18.1038 24.6126 18.3163 24.4625 18.5276 24.3101C18.9821 23.9833 19.4367 23.6576 19.8901 23.3308C20.0772 23.1961 20.2632 23.0604 20.4514 22.929C20.841 22.6552 21.2317 22.3825 21.6225 22.1087C21.9879 21.8525 22.3522 21.5975 22.7176 21.3414C22.9289 21.1934 23.1446 21.0499 23.3581 20.9042C23.8182 20.5917 24.2771 20.2782 24.7372 19.9658C24.9166 19.8443 25.0948 19.7207 25.2764 19.6014C26.0854 19.066 26.8932 18.5305 27.7022 17.9962C28.3218 17.5855 28.9502 17.1869 29.5743 16.784C30.7993 15.9924 32.0319 15.2107 33.2646 14.4291C34.6745 13.5348 36.0854 12.6428 37.5019 11.7606C37.7649 11.5961 38.0302 11.4338 38.2954 11.2738C38.2547 11.3124 38.2151 11.351 38.1744 11.3897C37.9576 11.5972 37.7462 11.8103 37.5283 12.0179C37.4117 12.1283 37.2928 12.2365 37.1739 12.3436C37.0584 12.4484 36.9461 12.5566 36.8338 12.6637C36.3727 13.102 35.9424 13.5723 35.5043 14.0338C35.074 14.4865 34.647 14.9435 34.2287 15.4072C34.0251 15.6336 33.8193 15.8588 33.6146 16.0851C33.3923 16.3302 33.1688 16.5742 32.9377 16.8116C32.5052 17.2554 32.0682 17.6948 31.6346 18.1386C31.1757 18.61 30.7134 19.0781 30.2567 19.5518C30.0431 19.7726 29.8384 20.0011 29.6326 20.2296C29.4268 20.4571 29.2254 20.6878 29.013 20.9086C28.576 21.3646 28.1325 21.815 27.7011 22.2765C27.2553 22.7534 26.814 23.2348 26.3715 23.7139C26.1525 23.9513 25.9313 24.1876 25.7123 24.4238C25.4999 24.6535 25.2919 24.8864 25.0816 25.1172C24.6733 25.5665 24.2529 26.0048 23.8457 26.4552C23.3977 26.9487 22.9608 27.4522 22.526 27.9567C22.1188 28.4303 21.6973 28.8918 21.278 29.3533C20.8443 29.8302 20.4162 30.3116 19.9848 30.7896C19.7812 31.0138 19.5753 31.2357 19.3684 31.4565C19.1593 31.6795 18.9491 31.9014 18.7444 32.1288C18.2997 32.6223 17.8595 33.1202 17.4127 33.6115C17.2036 33.8412 16.9922 34.0675 16.7809 34.2949C16.5696 34.5235 16.3627 34.7575 16.1569 34.9916C15.9489 35.2289 15.7409 35.4663 15.5295 35.7015C15.3138 35.9421 15.0904 36.1773 14.8692 36.4136C14.6634 36.6344 14.4653 36.8618 14.265 37.0881C14.0481 37.3332 13.8247 37.5739 13.6024 37.8146C13.4274 38.0033 13.2535 38.1932 13.0796 38.382C12.9806 38.4902 12.8804 38.5973 12.7824 38.7066C12.7076 38.7905 12.635 38.8744 12.5667 38.9639C12.5326 39.0091 12.4996 39.0566 12.4688 39.1041C12.4567 39.0963 12.4446 39.0875 12.4325 39.0798C12.3444 39.0191 12.2575 38.9572 12.1694 38.8965C11.9889 38.7695 11.8084 38.6437 11.6235 38.5233L11.6257 38.5256ZM15.458 44.9775C15.261 44.5535 15.0464 44.1395 14.8417 43.7211C14.7448 43.5224 14.6524 43.3225 14.5544 43.1238C14.4565 42.924 14.3552 42.7264 14.2539 42.5276C14.0646 42.1578 13.8665 41.7924 13.6706 41.4258C13.4835 41.0759 13.3173 40.717 13.1588 40.3527C13.1137 40.2434 13.0664 40.1341 13.0246 40.0226C12.9706 39.8791 12.9167 39.7345 12.8639 39.5898C12.8716 39.5468 12.8705 39.5026 12.8584 39.4596C12.8485 39.4364 12.8386 39.4132 12.8287 39.39C12.8199 39.3757 12.81 39.3624 12.799 39.3492C12.8243 39.305 12.8529 39.263 12.8826 39.2211C12.9938 39.0809 13.1159 38.9495 13.2392 38.8203C13.3581 38.6956 13.4758 38.5697 13.5947 38.4439C13.7961 38.2308 13.9975 38.0166 14.1967 37.8013C14.4267 37.5529 14.6524 37.3023 14.878 37.0506C15.0739 36.8309 15.2786 36.6189 15.48 36.4036C15.6968 36.1718 15.9114 35.9388 16.1217 35.7003C16.3297 35.4652 16.5355 35.2267 16.7457 34.9938C16.9559 34.7619 17.1683 34.5323 17.3818 34.3027C17.6042 34.0631 17.8276 33.8246 18.0466 33.5817C18.4824 33.0982 18.915 32.6135 19.3585 32.1377C19.5588 31.9235 19.7602 31.7115 19.9595 31.4962C20.1895 31.2478 20.4195 30.9983 20.6473 30.7477C20.8597 30.5147 21.0689 30.2796 21.2802 30.0455C21.4816 29.8236 21.683 29.6017 21.8855 29.3809C22.099 29.148 22.3147 28.915 22.5238 28.6765C22.7418 28.4281 22.9586 28.1797 23.1743 27.9302C23.5991 27.4411 24.0317 26.9598 24.4752 26.4872C24.6799 26.2687 24.8846 26.0512 25.0882 25.8326C25.2941 25.6118 25.4977 25.3876 25.7013 25.1657C26.1437 24.6822 26.5906 24.2041 27.0352 23.7228C27.4743 23.2491 27.9113 22.7733 28.3548 22.3041C28.5716 22.0745 28.7918 21.8492 29.0108 21.6218C29.2309 21.3944 29.4466 21.1625 29.6601 20.9296C29.8648 20.7066 30.0652 20.478 30.2677 20.2517C30.4746 20.0221 30.6892 19.798 30.9049 19.576C31.3661 19.1013 31.825 18.6255 32.2873 18.153C32.7231 17.7058 33.1699 17.2675 33.5948 16.8105C34.0273 16.3457 34.4466 15.8676 34.8715 15.3951C35.2941 14.9259 35.7299 14.4688 36.1592 14.0062C36.365 13.7854 36.5708 13.5646 36.7821 13.3493C36.8404 13.2897 36.8988 13.2323 36.9582 13.1738C36.7458 13.4277 36.5422 13.6905 36.3408 13.9532C36.1284 14.2303 35.9192 14.5086 35.7112 14.7879C35.5131 15.054 35.3139 15.3189 35.1125 15.5828C34.8957 15.8654 34.6833 16.1502 34.4764 16.4406C34.3465 16.6228 34.2122 16.8027 34.0768 16.9805C33.9349 17.1593 33.7907 17.3371 33.6542 17.5192C33.5177 17.7003 33.3824 17.8825 33.2481 18.0668C32.9905 18.419 32.7275 18.7657 32.4612 19.1112C32.2576 19.3751 32.0539 19.639 31.8503 19.9017C31.6456 20.1656 31.4365 20.4261 31.2274 20.6867C30.7739 21.2509 30.3249 21.8183 29.8902 22.3979C29.4708 22.9566 29.0504 23.5141 28.6256 24.0683C28.2106 24.6104 27.8056 25.158 27.4072 25.7111C27.2366 25.9474 27.0682 26.1847 26.8976 26.421C26.7116 26.6782 26.5245 26.9322 26.3352 27.1861C26.1206 27.4643 25.9049 27.7414 25.6892 28.0185C25.4867 28.2791 25.2842 28.5396 25.086 28.8024C24.6513 29.3809 24.2199 29.9605 23.7873 30.5401C23.6024 30.7874 23.4164 31.0347 23.2359 31.2865C23.0147 31.5967 22.7957 31.9069 22.5789 32.2205C22.2025 32.7647 21.8283 33.3101 21.453 33.8555C21.0402 34.4539 20.6308 35.0556 20.2148 35.6529C19.8263 36.2104 19.4367 36.7679 19.0537 37.3299C18.8655 37.607 18.6795 37.8841 18.488 38.159C18.292 38.4394 18.0895 38.7154 17.8903 38.9926C17.504 39.5313 17.1155 40.0679 16.7468 40.6188C16.6092 40.8241 16.4706 41.0273 16.3308 41.2315C16.2912 41.29 16.2482 41.3463 16.2053 41.4015C16.1965 41.4015 16.1866 41.3993 16.1778 41.3993C16.093 41.3993 16.0105 41.4413 15.9632 41.5208C15.9632 41.5208 15.9632 41.523 15.961 41.5241C15.9445 41.5307 15.928 41.5384 15.9114 41.5473C15.8718 41.5682 15.8465 41.6058 15.8234 41.6422C15.8124 41.6676 15.8014 41.693 15.7915 41.7184C15.7849 41.7372 15.7794 41.7548 15.775 41.7736C15.7662 41.8056 15.7618 41.8387 15.7552 41.8719C15.7464 41.9237 15.7365 41.9745 15.7265 42.0264C15.7166 42.0772 15.7177 42.1247 15.7453 42.1711C15.7695 42.213 15.8102 42.2439 15.8575 42.2572C15.8663 42.2594 15.8751 42.2616 15.8839 42.2627C15.8861 42.3499 15.8861 42.436 15.8861 42.5232C15.8861 42.7551 15.8828 42.9869 15.8795 43.2199C15.874 43.6692 15.8729 44.1197 15.8762 44.569C15.8795 45.0294 15.8861 45.4909 15.8993 45.9512C15.9004 45.9899 15.9015 46.0285 15.9037 46.0672C15.7717 45.6962 15.6198 45.3319 15.4547 44.9753L15.458 44.9775ZM18.3856 45.2369C18.2436 45.407 18.1093 45.5825 17.9685 45.7525C17.8309 45.9203 17.6867 46.0826 17.5381 46.2405C17.3136 46.4779 17.0913 46.7163 16.8734 46.9603C16.7666 47.0807 16.6599 47.2021 16.5542 47.3235C16.5058 47.3787 16.4573 47.4339 16.4089 47.4891C16.4078 47.4914 16.4056 47.4925 16.4045 47.4947C16.4045 47.4858 16.4045 47.477 16.4045 47.4693C16.4067 47.36 16.4089 47.2507 16.41 47.1414C16.4133 46.9195 16.4155 46.6987 16.4166 46.4768C16.4188 46.0263 16.4254 45.5759 16.4309 45.1254C16.4364 44.675 16.4397 44.2234 16.4364 43.773C16.4331 43.3005 16.4232 42.829 16.3924 42.3576C16.3858 42.2516 16.3737 42.1457 16.3583 42.0408C16.3627 42.043 16.3671 42.0463 16.3715 42.0485C16.4617 42.1059 16.5487 42.1677 16.6356 42.2307C16.9856 42.5045 17.3257 42.7926 17.6581 43.0885C17.8177 43.2309 17.9718 43.3789 18.1325 43.5202C18.2293 43.6052 18.3262 43.6891 18.4252 43.7708C18.5243 43.8536 18.631 43.9298 18.7334 44.0081C18.8379 44.0876 18.9458 44.1616 19.0515 44.24C19.0823 44.2621 19.1109 44.2853 19.1417 44.3084C18.8952 44.6231 18.6398 44.93 18.3845 45.238L18.3856 45.2369ZM38.8766 12.2409C38.8314 12.3844 38.7863 12.5279 38.7412 12.6704C38.6861 12.8448 38.6234 13.017 38.5629 13.1892C38.5035 13.3593 38.4473 13.5304 38.3824 13.6993C38.2327 14.0857 38.0841 14.4721 37.9322 14.8574C37.6252 15.6314 37.3192 16.4064 37.0154 17.1825C36.8691 17.5568 36.7227 17.931 36.5741 18.3042C36.4233 18.6818 36.2758 19.0605 36.1218 19.4358C35.9435 19.8697 35.7652 20.3047 35.588 20.7386C35.413 21.1669 35.2435 21.5975 35.0707 22.027C34.9298 22.3781 34.801 22.7336 34.669 23.088C34.5435 23.4247 34.418 23.7603 34.2992 24.0992C34.1506 24.5232 33.9987 24.9449 33.8534 25.37C33.696 25.8293 33.5397 26.2885 33.3824 26.7478C33.1226 27.5085 32.8673 28.2714 32.6119 29.0331C32.4777 29.4317 32.3434 29.8302 32.2091 30.2288C32.1046 30.5379 32.0022 30.8482 31.8944 31.1562C31.7139 31.6695 31.5345 32.1829 31.354 32.6963C31.2395 33.0209 31.114 33.341 30.9919 33.6634C30.8587 34.0156 30.7299 34.37 30.5912 34.72C30.3975 35.208 30.2027 35.6959 30.009 36.1839C29.8847 36.4964 29.7548 36.8066 29.6271 37.1168C29.4752 37.4834 29.3256 37.8499 29.1726 38.2153C28.9723 38.6934 28.7719 39.1725 28.5727 39.6506C28.4308 39.9895 28.2932 40.3306 28.1545 40.6707C28.0147 41.0129 27.875 41.3541 27.7396 41.6974C27.5877 42.0816 27.4358 42.4647 27.2839 42.8478C27.0902 43.3347 26.8976 43.8205 26.7006 44.3051C26.5124 44.7666 26.322 45.2259 26.1305 45.6852C26.048 45.8762 25.9654 46.0661 25.884 46.257C25.8102 46.4271 25.7321 46.5938 25.6551 46.7627C25.5153 47.0685 25.3634 47.3688 25.2335 47.679C25.1862 47.6536 25.1389 47.6271 25.0915 47.6018C24.9969 47.5499 24.9 47.5024 24.8054 47.4516C24.7118 47.4008 24.6205 47.3478 24.5291 47.2926C24.1428 47.0619 23.7664 46.8135 23.3856 46.5728C23.2051 46.4591 23.0246 46.3443 22.8496 46.2217C22.6603 46.0892 22.4721 45.9534 22.2839 45.8188C21.9119 45.5527 21.5443 45.28 21.1723 45.015C20.7904 44.7423 20.4041 44.4774 20.0288 44.1969C19.8505 44.0633 19.6755 43.9253 19.4928 43.7984C19.2925 43.6593 19.0911 43.5235 18.893 43.3822C18.8203 43.3303 18.7499 43.2773 18.6806 43.2232C18.3273 42.935 17.9872 42.6325 17.6273 42.3532C17.4347 42.2042 17.2443 42.0496 17.0473 41.905C16.9471 41.8321 16.847 41.7603 16.7446 41.6897C16.6907 41.6533 16.6356 41.619 16.5795 41.5859C16.6786 41.4567 16.7688 41.3221 16.8613 41.1874C17.0418 40.9257 17.2168 40.6596 17.4006 40.4002C17.8067 39.8283 18.2249 39.2653 18.6431 38.7022C19.036 38.1723 19.4047 37.6247 19.7823 37.0848C20.1719 36.5273 20.5714 35.9753 20.9599 35.4166C21.3737 34.8226 21.7875 34.2287 22.2003 33.6336C22.4017 33.3444 22.602 33.0551 22.8023 32.7658C22.9784 32.5119 23.1534 32.2558 23.335 32.0041C23.5078 31.7645 23.6784 31.5227 23.8556 31.2865C24.0559 31.0193 24.2562 30.7521 24.4565 30.4849C24.8142 30.0102 25.1697 29.5355 25.5274 29.0607C25.7167 28.8145 25.906 28.5683 26.0975 28.3232C26.2098 28.1797 26.322 28.0362 26.4332 27.8927C26.5498 27.7425 26.6687 27.5946 26.7821 27.4433C26.8866 27.3042 26.9934 27.1662 27.0946 27.026C27.2146 26.8604 27.3346 26.6948 27.4545 26.5303C27.6471 26.2642 27.8386 25.9971 28.0312 25.731C28.3559 25.2839 28.6883 24.8422 29.0251 24.404C29.5215 23.7614 30.0145 23.1167 30.5054 22.4697C30.7035 22.2158 30.9005 21.9607 31.103 21.7112C31.3319 21.4275 31.5631 21.146 31.7942 20.8633C32.2267 20.3356 32.6439 19.7968 33.0632 19.2592C33.4319 18.7867 33.7852 18.3031 34.1462 17.8251C34.3553 17.559 34.571 17.2962 34.7702 17.0213C34.9782 16.7343 35.1818 16.4439 35.3954 16.1602C35.5924 15.8974 35.7938 15.638 35.9908 15.3741C36.2054 15.086 36.4167 14.7956 36.6324 14.5086C36.7898 14.2966 36.9494 14.0868 37.1101 13.8771C37.2069 13.7534 37.3038 13.6298 37.4051 13.5083C37.5107 13.3814 37.6208 13.2588 37.7308 13.1363C37.9543 12.8856 38.1832 12.6405 38.4055 12.3899C38.5156 12.2652 38.6212 12.1382 38.7269 12.009C38.8303 11.8832 38.9382 11.7595 39.0438 11.6348C39.0516 11.6259 39.0582 11.6171 39.0659 11.6083C39.0251 11.7551 38.9811 11.9009 38.9393 12.0466C38.9206 12.1128 38.8986 12.1769 38.8788 12.242L38.8766 12.2409Z" fill="#8E8E93"/>
<path d="M6.01719 35.3121C5.99958 35.2989 5.98197 35.2845 5.96436 35.2701C5.96436 35.2701 5.96326 35.2701 5.96216 35.269C5.98087 35.2834 5.99958 35.2977 6.01719 35.3121Z" fill="#8E8E93"/>
<path d="M15.7832 50.1807C15.7873 50.4463 15.8116 50.7107 15.8535 50.9736C15.9035 51.2813 16.0021 51.5782 16.1251 51.8642C16.221 52.0879 16.3467 52.298 16.4778 52.504C16.5413 52.6043 16.621 52.6979 16.694 52.7927C16.7548 52.8727 16.8224 52.9459 16.8899 53.0205C17.0332 53.1763 17.1845 53.3268 17.3507 53.4596C17.2521 53.278 17.1642 53.0896 17.0764 52.9025C17.0345 52.8144 16.9899 52.729 16.9521 52.6396C16.9061 52.5325 16.8575 52.4267 16.8075 52.321C16.7251 52.1218 16.6345 51.9279 16.5413 51.7354C16.4156 51.4725 16.2737 51.2163 16.1467 50.9533C16.0237 50.6971 15.9048 50.4396 15.7832 50.1834V50.1807Z" fill="#8E8E93"/>
<path d="M19.1215 56.0942C19.3363 56.4006 19.566 56.6961 19.8079 56.9807C19.9877 57.1936 20.1849 57.3928 20.3849 57.5853C20.4782 57.6748 20.5809 57.7547 20.6809 57.8347C20.7876 57.9188 20.8944 58.0042 21.0065 58.0814C21.243 58.2495 21.4863 58.4081 21.7349 58.5586C21.9214 58.6711 22.1079 58.7809 22.2957 58.8893C21.947 58.4976 21.5957 58.1085 21.2187 57.7453C20.8471 57.386 20.4512 57.0539 20.035 56.7476C19.739 56.5185 19.4323 56.3016 19.1201 56.0956L19.1215 56.0942ZM20.0512 56.7571C20.0512 56.7571 20.0633 56.7666 20.0687 56.7706C20.0633 56.7666 20.0579 56.7612 20.0512 56.7571Z" fill="#8E8E93"/>
<path d="M25.8276 60.5673C26.1371 60.8058 26.46 61.0227 26.8033 61.2098C27.0262 61.3318 27.2587 61.4429 27.5005 61.5243C27.7614 61.6124 28.0276 61.6774 28.2978 61.7289C28.5546 61.7791 28.8154 61.8171 29.0775 61.8333C28.8573 61.7045 28.6424 61.5636 28.4235 61.4321C28.183 61.2898 27.937 61.1569 27.6816 61.0444C27.0965 60.7855 26.4614 60.6459 25.829 60.5659L25.8276 60.5673Z" fill="#8E8E93"/>
<path d="M34.9323 61.9495C34.3743 62.0227 33.8148 61.9969 33.2554 61.9807C33.5689 62.1203 33.8932 62.2396 34.2297 62.306C34.3864 62.3371 34.5472 62.3548 34.7053 62.3615C34.8715 62.3683 35.0377 62.3493 35.2026 62.3263C35.3472 62.306 35.4891 62.2734 35.631 62.2409C36.0796 62.1365 36.5188 61.9888 36.9552 61.8424C36.8107 61.8356 36.6661 61.8315 36.5215 61.8315C35.9904 61.8315 35.4607 61.879 34.9337 61.9508L34.9323 61.9495Z" fill="#8E8E93"/>
<path d="M43.2835 58.5908C43.047 58.7453 42.8132 58.9039 42.5889 59.0761C42.5916 59.0747 42.593 59.0734 42.5957 59.0707C42.4903 59.152 42.3876 59.236 42.2849 59.3228C42.1835 59.4095 42.0916 59.5058 41.9984 59.6007C41.8025 59.8013 41.6173 60.0209 41.4471 60.2432C41.4498 60.2405 41.4525 60.2364 41.4538 60.2337C41.416 60.2811 41.3795 60.3299 41.343 60.3787C41.7808 60.1903 42.1957 59.9463 42.5349 59.6075C42.6808 59.4611 42.8078 59.293 42.9308 59.1262C43.0578 58.9541 43.174 58.7738 43.2848 58.5908H43.2835Z" fill="#8E8E93"/>
<path d="M45.9946 53.1597C45.9554 53.3535 45.9136 53.546 45.8811 53.7412C45.85 53.9282 45.8271 54.1167 45.8082 54.3051C45.7879 54.5165 45.7798 54.728 45.7798 54.9395C45.7798 55.1956 45.7933 55.4545 45.7663 55.7094C45.7528 55.8002 45.7325 55.8829 45.6973 55.9669C45.646 56.0781 45.5865 56.1838 45.5298 56.2909C45.5676 56.2353 45.6041 56.1784 45.6419 56.1228C45.6973 56.0388 45.7595 55.9534 45.796 55.8585C45.8757 55.6538 45.9054 55.4369 45.9365 55.2214C45.9676 55.0059 45.9933 54.789 46.0136 54.5721C46.0581 54.1045 46.0798 53.6233 45.9946 53.1597Z" fill="#8E8E93"/>
<path d="M42.4197 48.593C42.4291 48.5998 42.4386 48.6066 42.4481 48.6134C42.467 48.6269 42.4818 48.6432 42.4954 48.6622C42.494 48.6608 42.4926 48.6581 42.4913 48.6554C42.5845 48.795 42.6548 48.9495 42.7345 49.0959C42.7845 49.1895 42.8386 49.2803 42.8913 49.3711C43.0143 49.5799 43.1507 49.7805 43.3048 49.9675C43.2967 49.958 43.2899 49.9472 43.2818 49.9377C43.6223 50.3742 44.0575 50.7402 44.5155 51.0479C44.4101 50.7334 44.2804 50.4311 44.1183 50.1424C44.0034 49.935 43.8737 49.7195 43.7142 49.5419C43.5683 49.3792 43.4061 49.2261 43.2345 49.0905C43.1264 49.0051 43.017 48.9224 42.9048 48.8411C42.8413 48.795 42.7751 48.7516 42.7089 48.7096C42.6197 48.6527 42.5291 48.5985 42.421 48.5903L42.4197 48.593Z" fill="#8E8E93"/>
<path d="M38.6949 48.1756C38.522 48.2312 38.3625 48.3301 38.2179 48.4386C38.0112 48.5931 37.8463 48.787 37.6923 48.9916C37.6193 49.0892 37.5544 49.1923 37.499 49.3007C37.6152 49.2139 37.7409 49.1435 37.8679 49.0743C38.1787 48.9049 38.5003 48.7626 38.8247 48.6216C39.0111 48.543 39.203 48.4643 39.4017 48.4318C39.6192 48.4115 39.8368 48.4277 40.0543 48.4318C39.9314 48.3478 39.8084 48.2651 39.6733 48.2041C39.5219 48.1363 39.3746 48.0956 39.2098 48.0889C39.1976 48.0889 39.1855 48.0889 39.1733 48.0889C39.0125 48.0889 38.8463 48.1255 38.6949 48.1743V48.1756Z" fill="#8E8E93"/>
<path d="M35.731 52.2856C35.5256 52.6327 35.3486 52.9946 35.2054 53.3714C35.1446 53.5314 35.1108 53.7022 35.0878 53.8716C35.0594 54.0749 35.054 54.2742 35.0878 54.4775C35.1094 54.609 35.1662 54.7323 35.2229 54.853C35.2635 54.9397 35.3094 55.0211 35.3635 55.0997C35.3473 55.0333 35.3351 54.9668 35.3243 54.8991C35.3202 54.8516 35.3148 54.8028 35.3094 54.7554C35.2959 54.6307 35.2973 54.51 35.3121 54.3867C35.3351 54.243 35.3729 54.1034 35.4108 53.9624C35.45 53.8174 35.4878 53.6696 35.5216 53.5232C35.5459 53.4189 35.5716 53.3145 35.5945 53.2101C35.6581 52.9065 35.7027 52.5961 35.7337 52.287L35.731 52.2856Z" fill="#8E8E93"/>
<path d="M36.5254 58.5137C36.5619 58.7522 36.6146 58.9881 36.6794 59.2212C36.6984 59.2917 36.7254 59.3595 36.7497 59.4273C36.7835 59.5222 36.8173 59.6211 36.8632 59.7106C37.0348 60.044 37.2537 60.3558 37.5159 60.6242C37.4686 60.5293 37.4267 60.4317 37.3848 60.3341C37.3591 60.2718 37.3335 60.2108 37.3064 60.1484C37.274 60.0698 37.2416 59.9925 37.2078 59.9153C37.1673 59.8082 37.1227 59.7025 37.0767 59.5981C37.0132 59.4422 36.9362 59.2944 36.8646 59.144C36.7619 58.9285 36.6457 58.7211 36.5267 58.5137H36.5254Z" fill="#8E8E93"/>
<path d="M41.0693 64.9136C41.2882 65.3799 41.5558 65.8367 41.9098 66.2122C42.1977 66.5171 42.5314 66.7747 42.8652 67.0282C42.6733 66.6622 42.4774 66.2976 42.2315 65.9655C41.918 65.5439 41.5045 65.2037 41.0707 64.9149L41.0693 64.9136Z" fill="#8E8E93"/>
<path d="M46.1289 70.3403C46.514 70.873 46.9424 71.3936 47.4424 71.8219C47.8802 72.1974 48.3599 72.5132 48.8383 72.8331C48.5221 72.3695 48.1613 71.929 47.764 71.5332C47.5789 71.3488 47.3762 71.1875 47.1708 71.0289C46.8397 70.7755 46.4897 70.5491 46.1289 70.3403Z" fill="#8E8E93"/>
<path d="M61.2543 81.5195C61.407 81.8394 61.6786 82.0807 61.9461 82.303C62.0853 82.4196 62.2259 82.5321 62.3691 82.6432C62.6056 82.8249 62.8502 82.9957 63.1002 83.157C63.588 83.4701 64.0974 83.7507 64.5974 84.0421C64.6636 84.0814 64.7298 84.1208 64.796 84.1614C64.4244 83.7371 64.0299 83.3264 63.5907 82.9713C63.4474 82.8561 63.3029 82.7422 63.1529 82.6351C63.0529 82.5633 62.9461 82.5009 62.8407 82.4386C62.6867 82.3464 62.5299 82.2583 62.3732 82.1729C62.1083 82.0306 61.8313 81.9072 61.5705 81.7554C61.4881 81.7066 61.411 81.651 61.3367 81.5927C61.3083 81.5697 61.28 81.5466 61.2529 81.5209L61.2543 81.5195ZM61.334 81.5873C61.334 81.5873 61.3354 81.5887 61.3367 81.59C61.3367 81.59 61.3354 81.5887 61.334 81.5873Z" fill="#8E8E93"/>
</svg>
