<svg width="14" height="14" viewBox="0 0 14 14" fill="none" xmlns="http://www.w3.org/2000/svg">
<path d="M6.56343 12.8322C6.07553 12.8081 5.59407 12.7243 5.1271 12.5826C5.07236 12.5617 5.01922 12.544 4.96286 12.5263C3.40415 12.0126 2.08215 10.7759 1.4445 9.23656C1.18364 8.60857 1.0355 7.93872 1.00651 7.2592C1.00329 7.18191 1.00007 6.14491 1.00007 4.43807C1.00007 1.50261 0.99685 1.71033 1.03389 1.596C1.11118 1.34803 1.32695 1.18056 1.59586 1.15963C1.80036 1.14353 1.93723 1.20311 2.37682 1.49939C2.65056 1.68457 2.92108 1.8794 3.25118 2.12738C3.40415 2.24332 3.42347 2.25459 3.43475 2.24815L3.60543 2.13543C3.88722 1.95025 4.14647 1.80533 4.43309 1.6749C4.85497 1.48329 5.2994 1.34481 5.7551 1.25946C6.08197 1.19666 6.41529 1.16446 6.74861 1.16285C7.30414 1.1548 7.75984 1.20794 8.28316 1.33837C10.0109 1.76991 11.4666 2.99852 12.1912 4.63935C12.4311 5.18038 12.6018 5.82287 12.6517 6.35425C12.6678 6.53298 12.6711 6.56358 12.6775 6.65214C12.6807 6.70367 12.6855 6.8502 12.6855 6.97741C12.6855 7.35903 12.6533 7.74227 12.6034 7.98219C12.5954 8.02406 12.5873 8.06592 12.5809 8.1094C12.5535 8.29297 12.4762 8.58925 12.386 8.85655C12.2862 9.15444 12.2073 9.34284 12.0527 9.65201C11.7323 10.2832 11.2991 10.85 10.7758 11.325C10.5616 11.5183 10.3716 11.668 10.1623 11.8129C9.8467 12.0303 9.52627 12.2074 9.1704 12.3653C8.87895 12.4941 8.46995 12.6277 8.1479 12.6986C7.9579 12.742 7.76789 12.7743 7.57466 12.7968C7.23973 12.8387 6.90158 12.8515 6.56343 12.837V12.8322ZM6.26715 9.9499C6.41046 9.92091 6.59725 9.84845 6.68742 9.78565C6.75827 9.73735 6.89514 9.60209 7.69221 8.80502C7.97561 8.5184 8.26223 8.23339 8.55046 7.9516C8.55851 7.9516 9.37168 7.13843 9.37168 7.12877C9.37168 7.11911 10.1704 6.32687 10.18 6.32687C10.1897 6.32687 10.2106 6.30433 10.238 6.27534C10.465 6.03381 10.5697 5.80999 10.5858 5.52175C10.5987 5.31081 10.5568 5.07894 10.4795 4.93885C10.37 4.73113 10.2042 4.55722 10.0013 4.43968C9.86441 4.36078 9.7517 4.32696 9.56974 4.30764C9.41999 4.29315 9.23481 4.30764 9.1076 4.34467C8.99006 4.37849 8.81454 4.47832 8.69216 4.57816C8.67123 4.59587 8.069 5.19327 7.35406 5.90821L6.05299 7.20767L5.52161 6.67629C5.23016 6.38484 4.97574 6.13364 4.95964 6.12076C4.77285 5.97423 4.54581 5.88728 4.30749 5.87279C4.11104 5.86634 3.86468 5.91626 3.71171 5.99516C3.59255 6.0644 3.48466 6.15136 3.39127 6.25119C3.33813 6.30916 3.25118 6.42509 3.24957 6.43798C3.24957 6.45247 3.24474 6.45891 3.21736 6.51527C3.15134 6.65375 3.11431 6.80511 3.10787 6.95808C3.10304 7.06919 3.10304 7.0869 3.11753 7.1964C3.14007 7.36869 3.23508 7.57641 3.36551 7.73905C3.38966 7.76964 3.8373 8.22212 4.36063 8.74383C5.0949 9.47649 5.32516 9.70353 5.37025 9.73574C5.52966 9.85328 5.70196 9.92414 5.90646 9.95795C5.99502 9.97244 6.1496 9.966 6.26393 9.94346L6.26715 9.9499Z" stroke="#8E8E93" stroke-width="0.674166" stroke-miterlimit="10"/>
</svg>
