<svg width="16" height="16" viewBox="0 0 16 16" fill="none" xmlns="http://www.w3.org/2000/svg">
<path d="M14.6301 1.73875C14.4864 1.61947 14.3131 1.54136 14.1286 1.51272C13.944 1.48407 13.7552 1.50597 13.5821 1.57609L1.63743 6.39808C1.44441 6.4774 1.28008 6.61355 1.16625 6.78846C1.05243 6.96336 0.99449 7.16875 1.00013 7.37736C1.00577 7.58596 1.07473 7.78792 1.19784 7.95642C1.32096 8.12491 1.4924 8.25198 1.68943 8.32075L4.26676 9.21542L5.66343 13.8328C5.6661 13.8421 5.67476 13.8481 5.67876 13.8568C5.69334 13.8935 5.71433 13.9274 5.74076 13.9567C5.7814 14.0016 5.83348 14.0346 5.89143 14.0521C5.8981 14.0548 5.90276 14.0608 5.90943 14.0621H5.91343L5.91543 14.0627C5.96701 14.0738 6.02059 14.071 6.07076 14.0548L6.08743 14.0514C6.13554 14.0344 6.1791 14.0066 6.21476 13.9701C6.21876 13.9654 6.22543 13.9648 6.22943 13.9608L8.2381 11.7434L11.1694 14.0134C11.3474 14.1528 11.5668 14.2281 11.7928 14.2281C12.2821 14.2281 12.7041 13.8854 12.8048 13.4074L14.9794 2.72875C15.0165 2.54747 15.0036 2.3595 14.9421 2.18499C14.8806 2.01048 14.7727 1.856 14.6301 1.73809M6.3921 10.0921L5.92076 12.3834L4.93743 9.13142L9.8141 6.59142L6.48276 9.92342C6.4367 9.96956 6.40517 10.0282 6.3921 10.0921ZM12.1514 13.2734C12.1389 13.3339 12.1111 13.3901 12.0706 13.4367C12.03 13.4833 11.9782 13.5186 11.9201 13.5394C11.8633 13.5609 11.802 13.5674 11.742 13.5583C11.6819 13.5492 11.6253 13.5248 11.5774 13.4874L8.4021 11.0281C8.33572 10.9768 8.25247 10.9525 8.16894 10.9599C8.08541 10.9673 8.00775 11.006 7.95143 11.0681L6.55343 12.6088L7.0241 10.3241L11.8168 5.53075C11.8729 5.47444 11.907 5.39992 11.9131 5.32064C11.9191 5.24137 11.8965 5.16255 11.8496 5.09842C11.8026 5.03429 11.7342 4.98906 11.6568 4.97091C11.5794 4.95276 11.498 4.96287 11.4274 4.99942L4.51876 8.59808L1.90743 7.69009C1.8384 7.66688 1.77823 7.62291 1.73515 7.5642C1.69207 7.50548 1.66819 7.43489 1.66676 7.36209C1.66324 7.28849 1.68281 7.21564 1.72274 7.15372C1.76266 7.0918 1.82094 7.04391 1.88943 7.01675L13.8321 2.19475C13.8934 2.16906 13.9605 2.16081 14.0262 2.17093C14.0918 2.18105 14.1534 2.20914 14.2041 2.25209C14.2545 2.2926 14.2926 2.34641 14.3141 2.40743C14.3355 2.46846 14.3394 2.53427 14.3254 2.59742L12.1514 13.2734Z" fill="#8E8E93"/>
</svg>
