<svg width="17" height="12" viewBox="0 0 17 12" fill="none" xmlns="http://www.w3.org/2000/svg">
<path d="M15.3719 2.56129C15.2867 2.25954 15.1195 1.98417 14.8868 1.76264C14.6541 1.54111 14.3641 1.38116 14.0458 1.29871C12.8765 1 8.18555 1 8.18555 1C8.18555 1 3.49464 1 2.32532 1.29871C2.00695 1.38116 1.71698 1.54111 1.48429 1.76264C1.25161 1.98417 1.08435 2.25954 0.999183 2.56129C0.685547 3.67613 0.685547 6 0.685547 6C0.685547 6 0.685547 8.32387 0.999183 9.43871C1.08425 9.74058 1.25146 10.0161 1.48415 10.2377C1.71684 10.4594 2.00687 10.6194 2.32532 10.7019C3.49532 11 8.18555 11 8.18555 11C8.18555 11 12.8765 11 14.0458 10.7019C14.3642 10.6194 14.6543 10.4594 14.8869 10.2377C15.1196 10.0161 15.2868 9.74058 15.3719 9.43871C15.6855 8.32516 15.6855 6 15.6855 6C15.6855 6 15.6855 3.67613 15.3719 2.56129ZM6.65146 8.11032V3.89032L10.5719 6.00064L6.65146 8.11032Z" stroke="#8E8E93" stroke-width="0.697809" stroke-miterlimit="10" stroke-linejoin="round"/>
</svg>
