<svg width="16" height="17" viewBox="0 0 16 17" fill="none" xmlns="http://www.w3.org/2000/svg">
<path d="M3.72681 1.4043C3.93824 1.40433 4.15645 1.45454 4.33813 1.54004L4.34009 1.54102C4.54838 1.63716 4.71889 1.77756 4.84204 1.96191V1.96289L4.8479 1.9707L6.39478 4.15039L6.39673 4.15332C6.52434 4.32954 6.61524 4.4918 6.67603 4.64648L6.68091 4.65723C6.75293 4.82347 6.78638 4.97855 6.78638 5.11816C6.78634 5.30456 6.73273 5.4924 6.62036 5.67969L6.61548 5.68945C6.53495 5.83441 6.40285 6.00364 6.22388 6.18262L6.21899 6.1875L5.76587 6.66113L5.6272 6.80566L5.69067 6.99707C5.70524 7.04066 5.72106 7.07152 5.72876 7.08691L5.73267 7.0957L5.73755 7.10352C5.83044 7.26601 6.00349 7.52347 6.31958 7.89453L6.32251 7.89746C6.65074 8.27258 6.96182 8.61784 7.27466 8.9375L7.27954 8.94238C7.67473 9.33088 8.00949 9.64558 8.32739 9.9082C8.57263 10.1146 8.77128 10.2603 8.92896 10.3633L8.86841 10.6221L9.50415 10.8184L9.68384 10.3516L9.69849 10.3125L10.0208 9.99512L10.0227 9.99414C10.2128 9.80406 10.3849 9.67365 10.5393 9.59375L10.551 9.58789L10.5618 9.58105C10.8303 9.41508 11.1837 9.37688 11.5588 9.53223C11.7092 9.59602 11.874 9.68359 12.053 9.80859V9.80957L14.2668 11.3828L14.2737 11.3877C14.4701 11.5205 14.6043 11.6835 14.6838 11.8701C14.7697 12.0885 14.8069 12.2795 14.8069 12.4648C14.8069 12.7336 14.7447 13.0056 14.6243 13.2637C14.4984 13.5333 14.3443 13.765 14.1477 13.9795L14.1458 13.9814C13.7952 14.3688 13.4224 14.6366 12.9954 14.8086L12.9944 14.8096C12.5745 14.9799 12.1169 15.0713 11.6331 15.0713C11.0205 15.0713 10.3703 14.9436 9.6897 14.6885L9.39673 14.5713C8.71981 14.2836 8.03419 13.9002 7.35767 13.4375L7.06763 13.2344C6.30244 12.6717 5.563 12.0435 4.86255 11.3564H4.86353C4.16939 10.6558 3.54015 9.91642 2.98364 9.15723H2.98462C2.49318 8.4715 2.08891 7.78979 1.78442 7.12988L1.6604 6.84863C1.32804 6.05593 1.16626 5.29957 1.16626 4.59766C1.1663 4.11834 1.2518 3.66542 1.41626 3.24512C1.5839 2.82066 1.85586 2.42274 2.22778 2.0752L2.23364 2.06836C2.69283 1.61513 3.19873 1.4043 3.72681 1.4043ZM3.72681 1.73828C3.31064 1.73828 2.93727 1.89963 2.60181 2.18359L2.46606 2.30762C2.12697 2.6246 1.88366 2.97768 1.73071 3.36621C1.57333 3.75593 1.50028 4.16558 1.50024 4.59766C1.50024 5.18562 1.62123 5.80882 1.85767 6.44238L1.96606 6.71484C2.27717 7.44766 2.71083 8.20301 3.25708 8.9541C3.80047 9.70125 4.41786 10.4274 5.09595 11.1123L5.09888 11.1152C5.60745 11.6187 6.1468 12.0953 6.70239 12.5342L7.26392 12.9609C7.90958 13.4332 8.57406 13.8291 9.2395 14.1338L9.52466 14.2588C10.7074 14.7633 11.8718 14.9053 12.8655 14.4922L12.8665 14.4932C13.2547 14.3333 13.5938 14.089 13.8977 13.749L13.8987 13.75C14.0758 13.5575 14.2146 13.3491 14.3284 13.1064L14.3274 13.1055C14.4271 12.8968 14.4797 12.6757 14.4797 12.4512C14.4797 12.2979 14.4504 12.145 14.3782 11.9824L14.3752 11.9756L14.3713 11.9688C14.3313 11.8888 14.2567 11.7673 14.0745 11.6426H14.0735L11.8665 10.0732L11.8645 10.0713L11.6458 9.93359C11.5743 9.89343 11.5039 9.85897 11.4338 9.83008L11.4329 9.8291C11.4194 9.8236 11.4066 9.81789 11.3899 9.81055C11.3747 9.80386 11.3537 9.79467 11.3323 9.78613C11.2881 9.76852 11.2245 9.74654 11.1467 9.74023C10.991 9.72766 10.8533 9.78282 10.7239 9.85938C10.5884 9.92712 10.4705 10.0173 10.3596 10.1182L10.2522 10.2207L9.74731 10.7188C9.58862 10.8734 9.33014 10.9168 9.13403 10.8467L8.98169 10.7783C8.73785 10.6462 8.44004 10.4376 8.10181 10.1504C7.78953 9.8836 7.44893 9.56904 7.03345 9.16016C6.71306 8.83305 6.39171 8.48582 6.05786 8.09961C5.75521 7.74526 5.54819 7.45443 5.42407 7.22559L5.36548 7.08008C5.33207 6.94991 5.32642 6.89605 5.32642 6.84473C5.32642 6.69056 5.38031 6.56232 5.48267 6.45996L5.48657 6.45605L5.98169 5.93945L5.98267 5.94043C6.13044 5.79264 6.24984 5.64347 6.33423 5.5L6.33325 5.49902C6.40995 5.37239 6.45337 5.24193 6.45337 5.10449C6.45334 4.98819 6.41523 4.86101 6.37427 4.7627L6.37231 4.75781L6.32153 4.6543C6.26658 4.55004 6.19783 4.44365 6.12134 4.33984L4.57837 2.15918L4.57739 2.15723C4.47825 2.01856 4.35362 1.91426 4.20044 1.84277L4.1936 1.83887L4.08325 1.79688C3.97081 1.75971 3.8507 1.73831 3.72681 1.73828Z" fill="#111111" stroke="#F28C28" stroke-width="0.666667"/>
</svg>
