<svg width="16" height="17" viewBox="0 0 16 17" fill="none" xmlns="http://www.w3.org/2000/svg">
<path d="M8.13329 15.4046C5.43996 15.4046 3.0133 13.918 1.7733 11.5246C1.7533 11.5046 1.73996 11.478 1.72662 11.4513C1.21996 10.438 0.959961 9.35796 0.959961 8.23796C0.959961 7.11796 1.21996 6.03795 1.72662 5.02462C2.95329 2.58462 5.40663 1.07129 8.12663 1.07129C9.95329 1.07129 11.6133 1.71795 12.9266 2.93795C13.0266 3.03128 13.0866 3.15795 13.0866 3.29795C13.0866 3.43795 13.0333 3.56463 12.9333 3.66463L11.0533 5.50462C10.86 5.69129 10.56 5.69796 10.36 5.51129C9.93996 5.11796 9.21329 4.65129 8.12663 4.65129C6.75329 4.65129 5.49329 5.47796 4.92663 6.76463C4.87996 6.87129 4.83996 6.97128 4.79996 7.08462C4.67329 7.47128 4.61329 7.86463 4.61329 8.24463C4.61329 8.62463 4.67996 9.00462 4.79996 9.38462C4.79996 9.39129 4.80663 9.39796 4.80663 9.4113C5.28663 10.8646 6.61996 11.838 8.12663 11.838C8.91996 11.838 9.59996 11.6446 10.1533 11.258C10.66 10.9046 10.98 10.4313 11.1533 10.0046H8.13329C7.85996 10.0046 7.63329 9.77795 7.63329 9.50462V7.03129C7.63329 6.75796 7.85996 6.53129 8.13329 6.53129H14.3933C14.6266 6.53129 14.8266 6.69128 14.88 6.91795C14.9866 7.38462 15.0333 7.82463 15.0333 8.3913C15.0333 10.5113 14.2733 12.3846 12.8866 13.6646C11.6533 14.798 10.0066 15.4046 8.13329 15.4046ZM2.58662 10.9379C2.60662 10.9646 2.62663 10.998 2.63996 11.0313C3.68663 13.1046 5.79329 14.4046 8.13329 14.4046C9.75329 14.4046 11.16 13.8913 12.2066 12.9246C13.3866 11.838 14.0333 10.2246 14.0333 8.38462C14.0333 8.05129 14.02 7.78462 13.98 7.52462H8.63329V8.99797H11.8066C11.9466 8.99797 12.0866 9.05797 12.18 9.16463C12.2733 9.2713 12.32 9.41796 12.3 9.55796C12.2133 10.3046 11.7466 11.358 10.7266 12.0713C10.0066 12.5713 9.13329 12.8313 8.12663 12.8313C6.19996 12.8313 4.49329 11.5913 3.86663 9.73796C3.86663 9.73129 3.85996 9.72462 3.85996 9.71796C3.69329 9.23129 3.61329 8.73796 3.61329 8.24463C3.61329 7.75796 3.69329 7.26461 3.85329 6.77128C3.89996 6.62461 3.95329 6.49128 4.01329 6.35795C4.74662 4.71128 6.35996 3.65129 8.12663 3.65129C9.26663 3.65129 10.1066 4.05129 10.68 4.47129L11.8466 3.3313C10.7933 2.50463 9.51329 2.07129 8.12663 2.07129C5.78663 2.07129 3.67329 3.37129 2.61996 5.47129C2.18663 6.34463 1.95996 7.27796 1.95996 8.23796C1.96663 9.17796 2.17329 10.0846 2.58662 10.9379Z" fill="#F28C28"/>
</svg>
