<svg width="16" height="16" viewBox="0 0 16 16" fill="none" xmlns="http://www.w3.org/2000/svg">
<path d="M8.0009 10.6663C8.70814 10.6663 9.38642 10.3854 9.88651 9.88529C10.3866 9.3852 10.6676 8.70692 10.6676 7.99967C10.6676 7.29243 10.3866 6.61415 9.88651 6.11406C9.38642 5.61396 8.70814 5.33301 8.0009 5.33301C7.29365 5.33301 6.61537 5.61396 6.11528 6.11406C5.61518 6.61415 5.33423 7.29243 5.33423 7.99967C5.33423 8.70692 5.61518 9.3852 6.11528 9.88529C6.61537 10.3854 7.29365 10.6663 8.0009 10.6663Z" stroke="#8E8E93" stroke-width="0.75" stroke-linecap="round" stroke-linejoin="round"/>
<path d="M2.00024 10.6667V5.33333C2.00024 4.44928 2.35143 3.60143 2.97655 2.97631C3.60168 2.35119 4.44952 2 5.33358 2H10.6669C11.551 2 12.3988 2.35119 13.0239 2.97631C13.6491 3.60143 14.0002 4.44928 14.0002 5.33333V10.6667C14.0002 11.5507 13.6491 12.3986 13.0239 13.0237C12.3988 13.6488 11.551 14 10.6669 14H5.33358C4.44952 14 3.60168 13.6488 2.97655 13.0237C2.35143 12.3986 2.00024 11.5507 2.00024 10.6667Z" stroke="#8E8E93" stroke-width="0.75"/>
<path d="M11.6672 4.34059L11.6746 4.33252" stroke="#8E8E93" stroke-width="0.75" stroke-linecap="round" stroke-linejoin="round"/>
</svg>
