<svg width="17" height="17" viewBox="0 0 17 17" fill="none" xmlns="http://www.w3.org/2000/svg">
<path d="M8.5 4.74561C9.73643 4.74565 10.7471 5.75069 10.7471 6.99268C10.747 8.2335 9.73753 9.23287 8.5 9.23291C7.26353 9.23291 6.25293 8.22785 6.25293 6.98584C6.25298 5.74499 7.26244 4.74561 8.5 4.74561ZM8.5 5.07959C7.45015 5.07959 6.58691 5.93433 6.58691 6.99268C6.58696 8.05007 7.4426 8.90576 8.5 8.90576C9.55737 8.90572 10.413 8.05004 10.4131 6.99268C10.4131 5.93436 9.54981 5.07963 8.5 5.07959Z" fill="#111111" stroke="#F28C28" stroke-width="0.666667"/>
<path d="M8.49987 15.2926C7.51321 15.2926 6.51987 14.9193 5.74654 14.1793C3.77987 12.286 1.60654 9.26597 2.42654 5.67264C3.16654 2.41264 6.01321 0.952637 8.49987 0.952637C8.49987 0.952637 8.49987 0.952637 8.50654 0.952637C10.9932 0.952637 13.8399 2.41264 14.5799 5.6793C15.3932 9.27264 13.2199 12.286 11.2532 14.1793C10.4799 14.9193 9.48654 15.2926 8.49987 15.2926ZM8.49987 1.95264C6.55987 1.95264 4.06654 2.98597 3.40654 5.89264C2.68654 9.03264 4.65987 11.7393 6.44654 13.4526C7.59987 14.566 9.40654 14.566 10.5599 13.4526C12.3399 11.7393 14.3132 9.03264 13.6065 5.89264C12.9399 2.98597 10.4399 1.95264 8.49987 1.95264Z" fill="#F28C28"/>
</svg>
