<svg width="32" height="32" viewBox="0 0 32 32" fill="none" xmlns="http://www.w3.org/2000/svg">
<path d="M12.5791 20.1265C12.3877 20.3178 12.0644 20.3178 11.873 20.1265C11.6817 19.9351 11.6818 19.6118 11.873 19.4204L19.4258 11.8677L19.4316 11.8608C19.5085 11.7786 19.634 11.7272 19.7725 11.7271C19.9003 11.7271 20.0247 11.7723 20.126 11.8735C20.3173 12.0649 20.3173 12.3882 20.126 12.5796L12.5791 20.1265Z" fill="#8E8E93" stroke="#8E8E93"/>
<path d="M12.2262 11.2267C12.4795 11.2267 12.7329 11.32 12.9329 11.52L20.4795 19.0667C20.8662 19.4534 20.8662 20.0934 20.4795 20.48C20.0929 20.8667 19.4529 20.8667 19.0662 20.48L11.5195 12.9334C11.1329 12.5467 11.1329 11.9067 11.5195 11.52C11.7195 11.32 11.9729 11.2267 12.2262 11.2267Z" fill="#8E8E93"/>
<path d="M11.9997 1.6667L19.9997 1.66671C27.2397 1.66671 30.333 4.76004 30.333 12L30.333 20C30.333 27.24 27.2397 30.3334 19.9997 30.3334L11.9997 30.3334C4.75967 30.3334 1.66634 27.24 1.66634 20L1.66634 12C1.66634 4.76004 4.75968 1.6667 11.9997 1.6667ZM19.9997 28.3334C26.1463 28.3334 28.333 26.1467 28.333 20L28.333 12C28.333 5.85337 26.1463 3.66671 19.9997 3.66671L11.9997 3.6667C5.85301 3.6667 3.66634 5.85337 3.66634 12L3.66634 20C3.66634 26.1467 5.85301 28.3334 11.9997 28.3334L19.9997 28.3334Z" fill="#8E8E93"/>
</svg>
