<svg width="33" height="33" viewBox="0 0 33 33" fill="none" xmlns="http://www.w3.org/2000/svg">
<path d="M16.2634 22.7292C15.1301 22.7292 13.9834 22.4359 13.0901 21.8625L5.06342 16.6225C3.57009 15.6492 2.67676 14.0092 2.67676 12.2225C2.67676 10.4359 3.57009 8.79588 5.06342 7.82255L13.1034 2.59588C14.8901 1.43588 17.6768 1.43588 19.4501 2.60921L27.4368 7.84921C28.9168 8.82255 29.8101 10.4625 29.8101 12.2359C29.8101 14.0092 28.9168 15.6492 27.4368 16.6225L19.4501 21.8625C18.5568 22.4492 17.4101 22.7292 16.2634 22.7292ZM16.2634 3.72921C15.5034 3.72921 14.7434 3.90255 14.1968 4.27588L6.17009 9.50255C5.23676 10.1159 4.69009 11.1025 4.69009 12.2225C4.69009 13.3425 5.22342 14.3292 6.17009 14.9425L14.1968 20.1825C15.3034 20.9025 17.2501 20.9025 18.3568 20.1825L26.3434 14.9425C27.2768 14.3292 27.8101 13.3425 27.8101 12.2225C27.8101 11.1025 27.2768 10.1159 26.3434 9.50255L18.3568 4.26255C17.7968 3.91588 17.0368 3.72921 16.2634 3.72921Z" fill="#F28C28"/>
<path d="M16.2499 30.3958C15.6632 30.3958 15.0632 30.3158 14.5832 30.1558L10.3299 28.7424C8.31658 28.0758 6.72991 25.8758 6.74325 23.7558L6.75658 17.5024C6.75658 16.9558 7.20991 16.5024 7.75658 16.5024C8.30325 16.5024 8.75658 16.9558 8.75658 17.5024L8.74325 23.7558C8.74325 25.0091 9.78325 26.4491 10.9699 26.8491L15.2232 28.2624C15.7566 28.4358 16.7432 28.4358 17.2766 28.2624L21.5299 26.8491C22.7166 26.4491 23.7566 25.0091 23.7566 23.7691V17.5824C23.7566 17.0358 24.2099 16.5824 24.7566 16.5824C25.3032 16.5824 25.7566 17.0358 25.7566 17.5824V23.7691C25.7566 25.8891 24.1832 28.0758 22.1699 28.7558L17.9166 30.1691C17.4366 30.3158 16.8366 30.3958 16.2499 30.3958Z" fill="#F28C28"/>
<path d="M28.7832 21.0625C28.2365 21.0625 27.7832 20.6092 27.7832 20.0625V12.0625C27.7832 11.5158 28.2365 11.0625 28.7832 11.0625C29.3299 11.0625 29.7832 11.5158 29.7832 12.0625V20.0625C29.7832 20.6092 29.3299 21.0625 28.7832 21.0625Z" fill="#F28C28"/>
</svg>
