<svg width="41" height="44" viewBox="0 0 41 44" fill="none" xmlns="http://www.w3.org/2000/svg">
<g filter="url(#filter0_d_1987_4616)">
<path d="M29.5048 18.0003L9.68815 29.9503C8.52148 30.6503 7.02148 29.8169 7.02148 28.4503V15.1169C7.02148 9.30027 13.3048 5.66693 18.3548 8.56693L26.0048 12.9669L29.4881 14.9669C30.6381 15.6503 30.6548 17.3169 29.5048 18.0003Z" fill="white"/>
<path d="M30.5045 27.7669L23.7545 31.6669L17.0212 35.5502C14.6045 36.9335 11.8712 36.6502 9.88784 35.2502C8.92117 34.5835 9.03784 33.1002 10.0545 32.5002L31.2378 19.8002C32.2378 19.2002 33.5545 19.7669 33.7378 20.9169C34.1545 23.5002 33.0878 26.2835 30.5045 27.7669Z" fill="white"/>
</g>
<defs>
<filter id="filter0_d_1987_4616" x="-6.64551" y="-5" width="54" height="54" filterUnits="userSpaceOnUse" color-interpolation-filters="sRGB">
<feFlood flood-opacity="0" result="BackgroundImageFix"/>
<feColorMatrix in="SourceAlpha" type="matrix" values="0 0 0 0 0 0 0 0 0 0 0 0 0 0 0 0 0 0 127 0" result="hardAlpha"/>
<feOffset/>
<feGaussianBlur stdDeviation="3.5"/>
<feComposite in2="hardAlpha" operator="out"/>
<feColorMatrix type="matrix" values="0 0 0 0 0 0 0 0 0 0 0 0 0 0 0 0 0 0 0.15 0"/>
<feBlend mode="normal" in2="BackgroundImageFix" result="effect1_dropShadow_1987_4616"/>
<feBlend mode="normal" in="SourceGraphic" in2="effect1_dropShadow_1987_4616" result="shape"/>
</filter>
</defs>
</svg>
