<svg width="40" height="40" viewBox="0 0 40 40" fill="none" xmlns="http://www.w3.org/2000/svg">
<rect width="40" height="40" rx="12" fill="#CED9F8"/>
<path fill-rule="evenodd" clip-rule="evenodd" d="M31.0961 24.5689C30.3661 22.2829 28.4311 20.9749 25.7761 20.9749H25.7571C24.6751 20.9649 23.7081 21.1829 22.8921 21.5999C25.1691 22.3309 26.8571 23.9529 27.6341 26.2479C28.8671 26.0769 29.9391 25.6979 30.8871 25.1189L31.2001 24.9199L31.0961 24.5689Z" fill="#3563DE"/>
<path fill-rule="evenodd" clip-rule="evenodd" d="M24.04 19.2484C24.552 19.5334 25.131 19.6944 25.757 19.6944C27.72 19.6944 29.313 18.1004 29.313 16.1374C29.313 14.1844 27.72 12.5904 25.757 12.5904C25.368 12.5904 24.998 12.6574 24.647 12.7704C25.159 13.5964 25.453 14.5724 25.453 15.6064C25.453 17.0104 24.931 18.2814 24.04 19.2484Z" fill="#3563DE"/>
<path fill-rule="evenodd" clip-rule="evenodd" d="M17.0598 21.5815C16.2628 21.1835 15.3238 20.9745 14.2618 20.9745H14.2238C11.5688 20.9745 9.63383 22.2835 8.91283 24.5685L8.79883 24.9195L9.11183 25.1185C10.0128 25.6695 11.0758 26.0385 12.2608 26.2285C13.0478 23.9245 14.7648 22.2925 17.0598 21.5815Z" fill="#3563DE"/>
<path fill-rule="evenodd" clip-rule="evenodd" d="M14.243 19.6941C14.869 19.6941 15.447 19.5331 15.96 19.2481C15.068 18.2811 14.546 17.0101 14.546 15.6061C14.546 14.5731 14.84 13.5961 15.353 12.7711C15.002 12.6571 14.632 12.5901 14.243 12.5901C12.28 12.5901 10.686 14.1841 10.686 16.1371C10.686 18.1011 12.28 19.6941 14.243 19.6941Z" fill="#3563DE"/>
<path fill-rule="evenodd" clip-rule="evenodd" d="M19.9655 22.1034C19.9495 22.1034 19.9345 22.1034 19.9195 22.1034C16.5055 22.1034 14.0165 23.7814 13.0905 26.7104L12.9785 27.0644L13.2955 27.2584C15.1035 28.3604 17.2635 28.8964 19.8985 28.8964H19.9835C22.6205 28.8964 24.7815 28.3604 26.5895 27.2584L26.9075 27.0644L26.7955 26.7104C25.8685 23.7814 23.3805 22.1034 19.9655 22.1034Z" fill="#3563DE"/>
<path fill-rule="evenodd" clip-rule="evenodd" d="M19.9997 20.1186C22.4857 20.1186 24.5077 18.0966 24.5077 15.6106C24.5077 13.1256 22.4857 11.1036 19.9997 11.1036C17.5137 11.1036 15.4917 13.1256 15.4917 15.6106C15.4917 18.0966 17.5137 20.1186 19.9997 20.1186Z" fill="#3563DE"/>
</svg>
