<svg width="56" height="56" viewBox="0 0 56 56" fill="none" xmlns="http://www.w3.org/2000/svg">
<rect width="56" height="56" rx="12" fill="#F28C28" fill-opacity="0.2"/>
<path d="M33.9833 28.6667V35.45C33.9833 36.05 33.9166 36.6167 33.7666 37.1333C33.1499 39.5833 31.1166 41.1167 28.3166 41.1167H23.7833L18.7499 44.4667C17.9999 44.9833 16.9999 44.4333 16.9999 43.5333V41.1167C15.2999 41.1167 13.8833 40.55 12.8999 39.5667C11.8999 38.5667 11.3333 37.15 11.3333 35.45V28.6667C11.3333 25.5 13.2999 23.3167 16.3333 23.0333C16.5499 23.0167 16.7666 23 16.9999 23H28.3166C31.7166 23 33.9833 25.2667 33.9833 28.6667Z" fill="#F28C28"/>
<path d="M37.5833 33.9999C39.6999 33.9999 41.4833 33.2999 42.7166 32.0499C43.9666 30.8166 44.6666 29.0333 44.6666 26.9166V18.4166C44.6666 14.4999 41.4999 11.3333 37.5833 11.3333H23.4166C19.4999 11.3333 16.3333 14.4999 16.3333 18.4166V19.6666C16.3333 20.1333 16.6999 20.4999 17.1666 20.4999H28.3166C32.8333 20.4999 36.4833 24.1499 36.4833 28.6666V33.1666C36.4833 33.6333 36.8499 33.9999 37.3166 33.9999H37.5833Z" fill="#F28C28"/>
</svg>
