<svg width="24" height="24" viewBox="0 0 24 24" fill="none" xmlns="http://www.w3.org/2000/svg">
<path d="M8.00006 15L6.00006 22M16.0001 15L18.0001 22M12.0001 11C10.4781 11 8.87006 11.293 7.60806 11.684C6.65806 11.978 5.89406 13.322 6.01206 14.413C6.05606 14.817 6.36906 15 6.69806 15H17.3021C17.6321 15 17.9441 14.817 17.9881 14.413C18.1061 13.322 17.3421 11.978 16.3921 11.683C15.1311 11.294 13.5221 11 12.0001 11Z" stroke="#8E8E93" stroke-width="1.5" stroke-linecap="round" stroke-linejoin="round"/>
<path d="M7 12L7.64 5.602C7.811 3.89 7.897 3.034 8.468 2.517C9.039 2 9.9 2 11.62 2H12.38C14.1 2 14.96 2 15.532 2.517C16.103 3.034 16.189 3.89 16.36 5.602L17 12" stroke="#8E8E93" stroke-width="1.5" stroke-linecap="round" stroke-linejoin="round"/>
</svg>
