<svg width="238" height="470" viewBox="0 0 238 470" fill="none" xmlns="http://www.w3.org/2000/svg">
<path fill-rule="evenodd" clip-rule="evenodd" d="M591.231 -272.406C642.011 -211.564 595.662 -114.217 624.781 -40.1756C649.607 22.9523 740.548 50.142 744.825 118.149C749.082 185.825 681.485 234.148 645.679 292.098C604.588 358.605 591.489 455.893 518.934 483.749C446.583 511.527 365.469 466.022 300.843 424.492C247.152 389.989 237.938 314.859 190.17 272.479C135.189 223.701 26.5009 232.517 4.77601 161.824C-16.21 93.535 52.054 27.3189 97.7322 -28.3144C134.28 -72.8278 201.067 -78.1156 238.038 -122.275C295.031 -190.351 285.313 -314.928 366.619 -349.489C441.633 -381.375 539.4 -334.508 591.231 -272.406Z" fill="url(#paint0_linear_477_1113)" fill-opacity="0.1"/>
<defs>
<linearGradient id="paint0_linear_477_1113" x1="287.661" y1="4.8731" x2="114.745" y2="146.372" gradientUnits="userSpaceOnUse">
<stop offset="0.336538" stop-color="#F9F9F9"/>
<stop offset="0.653846" stop-color="#F6D9BD"/>
<stop offset="0.798077" stop-color="#F3B87F"/>
<stop offset="1" stop-color="#F09A46"/>
</linearGradient>
</defs>
</svg>
