<svg width="41" height="40" viewBox="0 0 41 40" fill="none" xmlns="http://www.w3.org/2000/svg">
<rect x="0.5" width="40" height="40" rx="12" fill="#A9DAEF"/>
<path d="M23.35 11.95V15.75H21.85V11.95C21.85 11.68 21.61 11.55 21.45 11.55C21.4 11.55 21.35 11.56 21.3 11.58L13.37 14.57C12.84 14.77 12.5 15.27 12.5 15.84V16.51C11.59 17.19 11 18.28 11 19.51V15.84C11 14.65 11.73 13.59 12.84 13.17L20.78 10.17C21 10.09 21.23 10.05 21.45 10.05C22.45 10.05 23.35 10.86 23.35 11.95Z" fill="#36A8D9"/>
<path d="M29.9997 22.5V23.5C29.9997 23.77 29.7897 23.99 29.5097 24H28.0497C27.5197 24 27.0397 23.61 26.9997 23.09C26.9697 22.78 27.0897 22.49 27.2897 22.29C27.4697 22.1 27.7197 22 27.9897 22H29.4997C29.7897 22.01 29.9997 22.23 29.9997 22.5Z" fill="#36A8D9"/>
<path d="M27.98 20.95H29C29.55 20.95 30 20.5 30 19.95V19.51C30 17.44 28.31 15.75 26.24 15.75H14.76C13.91 15.75 13.13 16.03 12.5 16.51C11.59 17.19 11 18.28 11 19.51V26.24C11 28.31 12.69 30 14.76 30H26.24C28.31 30 30 28.31 30 26.24V26.05C30 25.5 29.55 25.05 29 25.05H28.13C27.17 25.05 26.25 24.46 26 23.53C25.79 22.77 26.04 22.04 26.54 21.55C26.91 21.17 27.42 20.95 27.98 20.95ZM22.5 20.75H15.5C15.09 20.75 14.75 20.41 14.75 20C14.75 19.59 15.09 19.25 15.5 19.25H22.5C22.91 19.25 23.25 19.59 23.25 20C23.25 20.41 22.91 20.75 22.5 20.75Z" fill="#36A8D9"/>
</svg>
