<svg width="41" height="40" viewBox="0 0 41 40" fill="none" xmlns="http://www.w3.org/2000/svg">
<rect x="0.5" width="40" height="40" rx="12" fill="#E2B93B" fill-opacity="0.3"/>
<path fill-rule="evenodd" clip-rule="evenodd" d="M29.931 17.7295C29.544 16.0835 27.826 15.9985 26.445 15.9295C25.576 15.8855 24.677 15.8415 24.301 15.4525C23.918 15.0565 23.619 14.2975 23.328 13.5635C22.761 12.1275 22.118 10.5005 20.499 10.5005C18.881 10.5005 18.239 12.1275 17.671 13.5635C17.381 14.2975 17.081 15.0565 16.699 15.4525C16.322 15.8415 15.423 15.8855 14.554 15.9295C13.173 15.9985 11.455 16.0835 11.068 17.7295C10.701 19.2915 11.848 20.2365 12.86 21.0705C13.552 21.6405 14.206 22.1805 14.351 22.8405C14.492 23.4815 14.28 24.3095 14.075 25.1115C13.723 26.4905 13.323 28.0525 14.658 29.0595C15.075 29.3745 15.498 29.4995 15.916 29.4995C16.821 29.4995 17.703 28.9155 18.458 28.4155C19.157 27.9535 19.88 27.4745 20.499 27.4745C21.118 27.4745 21.842 27.9535 22.54 28.4155C23.645 29.1465 25.019 30.0545 26.342 29.0595C27.677 28.0525 27.277 26.4895 26.924 25.1095C26.719 24.3085 26.508 23.4805 26.648 22.8405C26.793 22.1805 27.447 21.6415 28.139 21.0705C29.151 20.2365 30.298 19.2915 29.931 17.7295Z" fill="#DCD213"/>
</svg>
