<svg width="41" height="40" viewBox="0 0 41 40" fill="none" xmlns="http://www.w3.org/2000/svg">
<rect x="0.5" width="40" height="40" rx="12" fill="#F7D3A6"/>
<path d="M29.5401 21.28L28.6201 20.38L20.8701 28.12L21.8001 29.05C22.5801 29.83 23.3901 30.22 24.1901 30.22C24.9901 30.22 25.8001 29.83 26.5801 29.05L29.5401 26.09C31.1301 24.49 31.1301 22.88 29.5401 21.28Z" fill="#F28C28"/>
<path d="M19.1898 10.93C17.6198 9.36 15.9698 9.36 14.3998 10.93L11.4298 13.89C9.86977 15.46 9.86977 17.11 11.4298 18.68L12.3498 19.6L20.0998 11.85L19.1898 10.93Z" fill="#F28C28"/>
<path d="M30.3098 11.94C28.9998 15.21 26.0098 19.48 23.1598 22.27C22.7498 19.69 20.6898 17.67 18.0898 17.31C20.8898 14.45 25.1898 11.42 28.4698 10.1C29.0498 9.88 29.6298 10.05 29.9898 10.41C30.3698 10.79 30.5498 11.36 30.3098 11.94Z" fill="#F28C28"/>
<path d="M22.2801 23.09C22.0801 23.26 21.8801 23.43 21.6801 23.59L19.8901 25.02C19.8901 24.99 19.8801 24.95 19.8801 24.91C19.7401 23.84 19.2401 22.85 18.4301 22.04C17.6101 21.22 16.5901 20.72 15.4701 20.58C15.4401 20.58 15.4001 20.57 15.3701 20.57L16.8201 18.74C16.9601 18.56 17.1101 18.39 17.2701 18.21L17.9501 18.3C20.1001 18.6 21.8301 20.29 22.1701 22.43L22.2801 23.09Z" fill="#F28C28"/>
<path d="M18.9298 25.62C18.9298 26.72 18.5098 27.77 17.7098 28.56C17.0998 29.18 16.2798 29.6 15.2798 29.72L12.8298 29.99C11.4898 30.14 10.3398 28.99 10.4898 27.64L10.7598 25.18C10.9998 22.99 12.8298 21.59 14.7698 21.55C14.9598 21.54 15.1698 21.55 15.3698 21.57C16.2198 21.68 17.0398 22.07 17.7298 22.75C18.3998 23.42 18.7798 24.21 18.8898 25.04C18.9098 25.24 18.9298 25.43 18.9298 25.62Z" fill="#F28C28"/>
</svg>
