<svg width="33" height="33" viewBox="0 0 33 33" fill="none" xmlns="http://www.w3.org/2000/svg">
<path d="M25.8332 17.8759H3.1665C2.61984 17.8759 2.1665 17.4225 2.1665 16.8759C2.1665 16.3292 2.61984 15.8759 3.1665 15.8759H25.8332C26.3798 15.8759 26.8332 16.3292 26.8332 16.8759C26.8332 17.4225 26.3798 17.8759 25.8332 17.8759Z" fill="#F28C28"/>
<path d="M20.7931 29.0624H8.20654C3.63321 29.0624 2.1665 27.6091 2.1665 23.0891V13.7691C2.1665 10.1824 2.97987 8.06244 7.1132 7.82244C7.45987 7.80911 7.81988 7.79578 8.20654 7.79578H20.7931C25.3665 7.79578 26.8332 9.24911 26.8332 13.7691V23.3024C26.7798 27.6624 25.3131 29.0624 20.7931 29.0624ZM8.20654 9.79578C7.84654 9.79578 7.51321 9.80911 7.20654 9.82244C4.81988 9.96911 4.1665 10.4758 4.1665 13.7691V23.0891C4.1665 26.5024 4.72654 27.0624 8.20654 27.0624H20.7931C24.2331 27.0624 24.7932 26.5291 24.8332 23.2891V13.7691C24.8332 10.3558 24.2731 9.79578 20.7931 9.79578H8.20654Z" fill="#F28C28"/>
<path d="M25.8332 24.3025C25.5798 24.3025 25.3265 24.2092 25.1532 24.0358C24.9532 23.8492 24.8332 23.5825 24.8332 23.3025V13.7692C24.8332 10.3558 24.2731 9.79583 20.7931 9.79583H8.20654C7.84654 9.79583 7.51321 9.80917 7.20654 9.8225C6.93988 9.83583 6.67314 9.72917 6.47314 9.5425C6.27314 9.35583 6.1665 9.08917 6.1665 8.80917C6.21984 4.4625 7.68654 3.0625 12.2065 3.0625H24.7931C29.3665 3.0625 30.8332 4.51583 30.8332 9.03583V18.3558C30.8332 21.9425 30.0198 24.0625 25.8865 24.3025C25.8731 24.3025 25.8465 24.3025 25.8332 24.3025ZM8.20654 7.79583H20.7931C25.3665 7.79583 26.8332 9.24916 26.8332 13.7692V22.1958C28.3798 21.9158 28.8332 21.1158 28.8332 18.3558V9.03583C28.8332 5.6225 28.2731 5.0625 24.7931 5.0625H12.2065C9.16654 5.0625 8.37988 5.47583 8.20654 7.79583Z" fill="#F28C28"/>
<path d="M9.78019 24.8092H7.48682C6.94015 24.8092 6.48682 24.3559 6.48682 23.8092C6.48682 23.2625 6.94015 22.8092 7.48682 22.8092H9.78019C10.3269 22.8092 10.7802 23.2625 10.7802 23.8092C10.7802 24.3559 10.3402 24.8092 9.78019 24.8092Z" fill="#F28C28"/>
<path d="M17.2332 24.8092H12.6465C12.0998 24.8092 11.6465 24.3559 11.6465 23.8092C11.6465 23.2625 12.0998 22.8092 12.6465 22.8092H17.2332C17.7798 22.8092 18.2332 23.2625 18.2332 23.8092C18.2332 24.3559 17.7932 24.8092 17.2332 24.8092Z" fill="#F28C28"/>
</svg>
