<svg width="16" height="16" viewBox="0 0 16 16" fill="none" xmlns="http://www.w3.org/2000/svg">
<path d="M12.6668 8.90665H1.3335C1.06016 8.90665 0.833496 8.67998 0.833496 8.40665C0.833496 8.13331 1.06016 7.90665 1.3335 7.90665H12.6668C12.9402 7.90665 13.1668 8.13331 13.1668 8.40665C13.1668 8.67998 12.9402 8.90665 12.6668 8.90665Z" fill="#AEAEB2"/>
<path d="M10.1468 14.5H3.85352C1.56685 14.5 0.833496 13.7733 0.833496 11.5133V6.85332C0.833496 5.05999 1.24018 3.99999 3.30684 3.87999C3.48018 3.87332 3.66018 3.86665 3.85352 3.86665H10.1468C12.4335 3.86665 13.1668 4.59332 13.1668 6.85332V11.62C13.1402 13.8 12.4068 14.5 10.1468 14.5ZM3.85352 4.86665C3.67352 4.86665 3.50685 4.87332 3.35352 4.87999C2.16018 4.95332 1.8335 5.20665 1.8335 6.85332V11.5133C1.8335 13.22 2.11352 13.5 3.85352 13.5H10.1468C11.8668 13.5 12.1468 13.2333 12.1668 11.6133V6.85332C12.1668 5.14665 11.8868 4.86665 10.1468 4.86665H3.85352Z" fill="#AEAEB2"/>
<path d="M12.6666 12.12C12.5399 12.12 12.4132 12.0733 12.3266 11.9867C12.2266 11.8933 12.1666 11.76 12.1666 11.62V6.85333C12.1666 5.14667 11.8866 4.86667 10.1466 4.86667H3.85327C3.67327 4.86667 3.5066 4.87333 3.35327 4.88C3.21994 4.88667 3.08657 4.83333 2.98657 4.74C2.88657 4.64667 2.83325 4.51333 2.83325 4.37333C2.85992 2.2 3.59327 1.5 5.85327 1.5H12.1466C14.4332 1.5 15.1666 2.22667 15.1666 4.48667V9.14667C15.1666 10.94 14.7599 12 12.6932 12.12C12.6866 12.12 12.6733 12.12 12.6666 12.12ZM3.85327 3.86667H10.1466C12.4332 3.86667 13.1666 4.59333 13.1666 6.85333V11.0667C13.9399 10.9267 14.1666 10.5267 14.1666 9.14667V4.48667C14.1666 2.78 13.8866 2.5 12.1466 2.5H5.85327C4.33327 2.5 3.93994 2.70667 3.85327 3.86667Z" fill="#AEAEB2"/>
<path d="M4.6401 12.3733H3.49341C3.22007 12.3733 2.99341 12.1467 2.99341 11.8733C2.99341 11.6 3.22007 11.3733 3.49341 11.3733H4.6401C4.91343 11.3733 5.1401 11.6 5.1401 11.8733C5.1401 12.1467 4.9201 12.3733 4.6401 12.3733Z" fill="#AEAEB2"/>
<path d="M8.36658 12.3733H6.07324C5.79991 12.3733 5.57324 12.1467 5.57324 11.8733C5.57324 11.6 5.79991 11.3733 6.07324 11.3733H8.36658C8.63991 11.3733 8.86658 11.6 8.86658 11.8733C8.86658 12.1467 8.64658 12.3733 8.36658 12.3733Z" fill="#AEAEB2"/>
</svg>
